<?xml version="1.0" encoding="UTF-8"?>
<!-- Created with Inkscape (http://www.inkscape.org/) -->
<svg width="510" height="510" version="1.1" viewBox="0 0 510 510" xml:space="preserve" xmlns="http://www.w3.org/2000/svg" xmlns:cc="http://creativecommons.org/ns#" xmlns:dc="http://purl.org/dc/elements/1.1/" xmlns:rdf="http://www.w3.org/1999/02/22-rdf-syntax-ns#">
	<metadata>
		<rdf:RDF>
			<cc:Work rdf:about="">
				<dc:format>image/svg+xml</dc:format>
				<dc:type rdf:resource="http://purl.org/dc/dcmitype/StillImage"/>
				<dc:title/>
			</cc:Work>
		</rdf:RDF>
	</metadata>
	<g fill="#263238">
		<g id="post-linkedin" fill="#263238">
			<path d="m459 0h-408c-28.05 0-51 22.95-51 51v408c0 28.05 22.95 51 51 51h408c28.05 0 51-22.95 51-51v-408c0-28.05-22.95-51-51-51zm-306 433.5h-76.5v-229.5h76.5zm-38.25-272.85c-25.5 0-45.9-20.4-45.9-45.9s20.4-45.9 45.9-45.9 45.9 20.4 45.9 45.9-20.4 45.9-45.9 45.9zm318.75 272.85h-76.5v-135.15c0-20.399-17.85-38.25-38.25-38.25s-38.25 17.851-38.25 38.25v135.15h-76.5v-229.5h76.5v30.6c12.75-20.4 40.8-35.7 63.75-35.7 48.45 0 89.25 40.8 89.25 89.25z" fill="#263238"/>
		</g>
	</g>
</svg>
