<?xml version="1.0" encoding="UTF-8"?>
<svg width="1600pt" height="184.36pt" version="1.0" viewBox="0 0 1600 184.36" xmlns="http://www.w3.org/2000/svg" xmlns:cc="http://creativecommons.org/ns#" xmlns:dc="http://purl.org/dc/elements/1.1/" xmlns:rdf="http://www.w3.org/1999/02/22-rdf-syntax-ns#">
 <metadata>
  <rdf:RDF>
   <cc:Work rdf:about="">
    <dc:format>image/svg+xml</dc:format>
    <dc:type rdf:resource="http://purl.org/dc/dcmitype/StillImage"/>
    <dc:title/>
   </cc:Work>
  </rdf:RDF>
 </metadata>
 <g transform="matrix(.1 0 0 -.069966 0 184.71)" fill="#ff6e80">
  <path d="m0 1935c0-693 0-706 19-695 11 5 26 16 33 22 8 7 27 21 43 30 156 88 214 119 300 160 373 174 642 171 888-10 138-101 285-259 547-587 115-145 303-200 486-144 102 31 168 73 274 174 118 113 137 120 318 112 143-6 165-11 572-147 524-174 740-222 1e3 -223 372-1 622 88 895 321 95 81 328 320 357 365 3 5 49 54 102 107 110 110 195 164 329 210 182 62 350 61 455-3 148-88 301-273 466-559 198-346 436-692 542-789 78-71 215-174 264-199 113-57 193-75 335-75 183 0 272 28 459 143 141 87 267 195 481 412 456 463 552 552 715 671 215 157 368 225 594 265 113 20 160 18 209-8 117-61 310-130 426-152 120-23 298-21 397 4 134 34 192 69 332 202 137 130 208 182 261 193 84 18 283-133 399-303 74-109 106-168 222-417 74-160 106-217 160-285 38-47 81-96 96-110 222-197 488-248 813-154 68 20 188 67 256 101 59 30 288 157 326 181 58 38 157 92 202 112 61 27 231 70 277 70 37 0 130-17 270-50 93-21 210-25 280-9 185 43 357 220 539 557l61 113v1099h-16000z"/>
 </g>
</svg>
