<?xml version="1.0" encoding="UTF-8" standalone="no"?>
<svg
   xmlns:dc="http://purl.org/dc/elements/1.1/"
   xmlns:cc="http://creativecommons.org/ns#"
   xmlns:rdf="http://www.w3.org/1999/02/22-rdf-syntax-ns#"
   xmlns:svg="http://www.w3.org/2000/svg"
   xmlns="http://www.w3.org/2000/svg"
   xmlns:sodipodi="http://sodipodi.sourceforge.net/DTD/sodipodi-0.dtd"
   xmlns:inkscape="http://www.inkscape.org/namespaces/inkscape"
   viewBox="0 0 500 500"
   version="1.1"
   id="svg666"
   sodipodi:docname="vector.svg"
   inkscape:version="1.0.1 (3bc2e813f5, 2020-09-07)">
  <metadata
     id="metadata672">
    <rdf:RDF>
      <cc:Work
         rdf:about="">
        <dc:format>image/svg+xml</dc:format>
        <dc:type
           rdf:resource="http://purl.org/dc/dcmitype/StillImage" />
        <dc:title></dc:title>
      </cc:Work>
    </rdf:RDF>
  </metadata>
  <defs
     id="defs670" />
  <sodipodi:namedview
     pagecolor="#ffffff"
     bordercolor="#666666"
     borderopacity="1"
     objecttolerance="10"
     gridtolerance="10"
     guidetolerance="10"
     inkscape:pageopacity="0"
     inkscape:pageshadow="2"
     inkscape:window-width="1920"
     inkscape:window-height="1027"
     id="namedview668"
     showgrid="false"
     inkscape:zoom="0.70710678"
     inkscape:cx="-35.097224"
     inkscape:cy="283.02838"
     inkscape:window-x="1272"
     inkscape:window-y="-8"
     inkscape:window-maximized="1"
     inkscape:current-layer="svg666"
     inkscape:document-rotation="0" />
  <g
     id="freepik--Floor--inject-7"
     style="fill:#455a64;fill-opacity:0.20092379">
    <ellipse
       id="freepik--floor--inject-7"
       cx="249.86"
       cy="362.35999"
       rx="224.23"
       ry="124.15"
       style="fill:#455a64;fill-opacity:0.20092379" />
  </g>
  <g
     id="freepik--Desk--inject-7">
    <g
       id="freepik--desk--inject-7">
      <g
         id="freepik--Table--inject-7">
        <path
           d="M329.42,286.36v111a2.48,2.48,0,0,1-1.12,1.94l-2.38,1.37a2.46,2.46,0,0,1-2.24,0l-2.38-1.37a2.48,2.48,0,0,1-1.12-1.94V286.36c0-.71.5-1,1.12-.64l2.38,1.37a2.46,2.46,0,0,0,2.24,0l2.38-1.37C328.92,285.36,329.42,285.65,329.42,286.36Z"
           style="fill:#37474f"
           id="path4" />
        <path
           d="M323.68,400.62l-2.38-1.37a2.48,2.48,0,0,1-1.12-1.94V286.36c0-.71.5-1,1.12-.64l2.38,1.37A2.48,2.48,0,0,1,324.8,289V400C324.8,400.69,324.3,401,323.68,400.62Z"
           style="fill:#455a64"
           id="path6" />
        <path
           d="M430.93,227.72V338.66a2.45,2.45,0,0,1-1.12,1.94L427.43,342a2.52,2.52,0,0,1-2.24,0l-2.38-1.38a2.48,2.48,0,0,1-1.12-1.94V227.72c0-.71.51-1,1.12-.65l2.38,1.38a2.46,2.46,0,0,0,2.24,0l2.38-1.38C430.43,226.72,430.93,227,430.93,227.72Z"
           style="fill:#37474f"
           id="path8" />
        <path
           d="M425.19,342l-2.38-1.38a2.48,2.48,0,0,1-1.12-1.94V227.72c0-.71.51-1,1.12-.65l2.38,1.38a2.47,2.47,0,0,1,1.12,1.94V341.33C426.31,342,425.81,342.33,425.19,342Z"
           style="fill:#455a64"
           id="path10" />
        <path
           d="M192.71,207.47v111a2.48,2.48,0,0,1-1.12,1.94l-2.38,1.37a2.46,2.46,0,0,1-2.24,0l-2.38-1.37a2.48,2.48,0,0,1-1.12-1.94v-111c0-.71.5-1,1.12-.64L187,208.2a2.46,2.46,0,0,0,2.24,0l2.38-1.37C192.21,206.47,192.71,206.76,192.71,207.47Z"
           style="fill:#37474f"
           id="path12" />
        <path
           d="M187,321.73l-2.38-1.37a2.48,2.48,0,0,1-1.12-1.94v-111c0-.71.5-1,1.12-.64L187,208.2a2.48,2.48,0,0,1,1.12,1.94V321.08C188.09,321.8,187.59,322.09,187,321.73Z"
           style="fill:#455a64"
           id="path14" />
        <path
           d="M453,235.61v-.81a4.49,4.49,0,0,0-2-3.53L272,128a4.51,4.51,0,0,0-4.08,0l-110.12,63.6a4.49,4.49,0,0,0-2,3.53V196a4.49,4.49,0,0,0,2,3.53l179,103.26a4.58,4.58,0,0,0,4.08,0L451,239.14A4.49,4.49,0,0,0,453,235.61Z"
           style="fill:#00E0BE"
           id="path16" />
        <path
           d="M453,235.61v-.81a4.49,4.49,0,0,0-2-3.53L272,128a4.51,4.51,0,0,0-4.08,0l-110.12,63.6a4.49,4.49,0,0,0-2,3.53V196a4.49,4.49,0,0,0,2,3.53l179,103.26a4.58,4.58,0,0,0,4.08,0L451,239.14A4.49,4.49,0,0,0,453,235.61Z"
           style="opacity:0.6000000000000001"
           id="path18" />
        <path
           d="M338.82,297.72v5.52a4.24,4.24,0,0,0,2-.49L451,239.15a4.51,4.51,0,0,0,2-3.53v-.82a4.53,4.53,0,0,0-1.66-3.26c.73.63.61,1.5-.38,2.09l-110.12,63.6A4.13,4.13,0,0,1,338.82,297.72Z"
           style="fill:#00E0BE"
           id="path20" />
        <path
           d="M338.82,297.72v5.52a4.24,4.24,0,0,0,2-.49L451,239.15a4.51,4.51,0,0,0,2-3.53v-.82a4.53,4.53,0,0,0-1.66-3.26c.73.63.61,1.5-.38,2.09l-110.12,63.6A4.13,4.13,0,0,1,338.82,297.72Z"
           style="opacity:0.5"
           id="path22" />
        <path
           d="M451,233.62,340.86,297.23a4.51,4.51,0,0,1-4.08,0L157.77,194a1.24,1.24,0,0,1,0-2.35L267.89,128a4.51,4.51,0,0,1,4.08,0L451,231.27A1.24,1.24,0,0,1,451,233.62Z"
           style="fill:#00E0BE"
           id="path24" />
        <path
           d="M451,233.62,340.86,297.23a4.51,4.51,0,0,1-4.08,0L157.77,194a1.24,1.24,0,0,1,0-2.35L267.89,128a4.51,4.51,0,0,1,4.08,0L451,231.27A1.24,1.24,0,0,1,451,233.62Z"
           style="opacity:0.4"
           id="path26" />
      </g>
      <g
         id="freepik--Keyboard--inject-7">
        <path
           id="freepik--shadow--inject-7"
           d="M325.29,232.24l-26.09,15.1a3.25,3.25,0,0,1-2.93,0L219.19,202.9a.89.89,0,0,1,0-1.69l26.09-15.11a3.26,3.26,0,0,1,2.92,0l77.09,44.45A.89.89,0,0,1,325.29,232.24Z"
           style="opacity:0.15" />
        <g
           id="freepik--keyboard--inject-7">
          <path
             d="M220.77,198.53a1,1,0,0,1,.61-.84l24.51-14.15a3.2,3.2,0,0,1,2.92,0l74.8,43.25a1,1,0,0,1,.6.85v2.57a1,1,0,0,1-.6.84l-24.5,14.15a3.22,3.22,0,0,1-2.93,0L221.38,202a1,1,0,0,1-.61-.84Z"
             style="fill:#263238"
             id="path30" />
          <path
             d="M299.11,242.57l24.5-14.09a.89.89,0,0,0,0-1.69l-74.8-43.25a3.2,3.2,0,0,0-2.92,0l-24.51,14.15a.89.89,0,0,0,0,1.69l74.8,43.18A3.25,3.25,0,0,0,299.11,242.57Z"
             style="fill:#37474f"
             id="path32" />
          <path
             d="M297.74,242.91v2.63a2.92,2.92,0,0,0,1.37-.34l24.49-14.14a1,1,0,0,0,.61-.85v-2.58a1,1,0,0,1-.61.85l-24.49,14.09A3,3,0,0,1,297.74,242.91Z"
             style="fill:#263238"
             id="path34" />
          <path
             d="M225.31,198.72s0,0,0,0l2.42-1.4,3.29,1.9-2.44,1.45-3.29-1.9Zm3.8-2.19a0,0,0,0,1,0,0l2.43-1.4,2.59,1.49L231.69,198l-2.58-1.49Zm.8,4.85a0,0,0,0,1,0,0l2.43-1.4,2.58,1.49-2.44,1.45-2.58-1.49Zm3-7s0,0,0,0l2.43-1.4,4.17,2.42-2.44,1.44-4.17-2.41Zm.09,4.44s0,0,0,0l2.42-1.41,2.06,1.19L235.05,200,233,198.79Zm.8,4.84,0,0,2.42-1.4,2.59,1.49-2.45,1.45-2.58-1.49Zm2.56-2.9a.05.05,0,0,1,0,0l2.42-1.4,2,1.19-2.44,1.45-2-1.19Zm.34-8.58,0,0,2.43-1.4,3.29,1.9L240,194.06l-3.29-1.9Zm1,13.73s0,0,0,0l2.42-1.4,18.68,10.78-2.44,1.45-18.68-10.78Zm.7-8.37s0,0,0,0l2.42-1.4,2,1.19-2.44,1.44-2.05-1.18Zm1.33,5.16a.05.05,0,0,1,0,0l2.42-1.4,2.05,1.19-2.44,1.45-2.05-1.19ZM240.5,190s0,0,0,0l2.42-1.4,2.06,1.19-2.44,1.44L240.51,190Zm.8,4.85s0,0,0,0l2.42-1.4,2.06,1.18L243.36,196l-2.06-1.18Zm.45,4.64s0,0,0,0l2.42-1.4,2.05,1.19-2.44,1.44-2.05-1.18Zm1.33,5.16a.05.05,0,0,1,0,0l2.42-1.4,2,1.19-2.44,1.45-2-1.19Zm.78-12.71s0,0,0,0l2.42-1.4,2.06,1.19-2.44,1.44-2-1.18Zm.8,4.85s0,0,0,0l2.42-1.4,2.06,1.18-2.44,1.45-2.05-1.18Zm.45,4.64,0,0,2.42-1.4,2,1.19-2.44,1.44-2-1.18Zm0-14.09s0,0,0,0l2.42-1.4,2.59,1.49-2.45,1.45-2.58-1.49Zm1.33,19.25a.05.05,0,0,1,0,0l2.42-1.4,2.05,1.19-2.44,1.45-2.05-1.19Zm.78-12.71s0,0,0,0l2.42-1.4,2.06,1.19L249.28,195l-2.05-1.18Zm.8,4.85s0,0,0,0l2.42-1.4,2.06,1.18-2.44,1.45L248,198.7Zm.45,4.64s0,0,0,0l2.42-1.4,2.05,1.19-2.44,1.44-2.05-1.18Zm1.33,5.16a.05.05,0,0,1,0,0l2.42-1.4,2,1.19-2.44,1.45-2-1.19Zm.66-18.1s0,0,0,0l2.43-1.4,2.05,1.18-2.44,1.45-2.05-1.18Zm.12,5.39s0,0,0,0l2.42-1.4,2.06,1.19L252.63,197l-2-1.18Zm.8,4.85s0,0,0,0l2.42-1.4,2.06,1.18-2.44,1.45-2.05-1.18Zm.45,4.64s0,0,0,0l2.42-1.4,2,1.19-2.44,1.44-2-1.18Zm1.33,5.16s0,0,0,0L255.6,209l2,1.19-2.44,1.45-2.05-1.19Zm.66-18.1s0,0,0,0l2.42-1.4,2.06,1.18-2.44,1.45-2-1.18Zm.12,5.39s0,0,0,0l2.42-1.4,2.06,1.19L256,198.91l-2-1.18Zm.8,4.85s0,0,0,0l2.42-1.4,2.06,1.18-2.44,1.45-2.05-1.18Zm.45,4.64v0l2.43-1.4,2.05,1.19-2.44,1.44-2.05-1.18Zm1.33,5.16s0,0,0,0l2.42-1.41,2.05,1.19-2.44,1.45-2.05-1.19Zm.66-18.1s0,0,0,0l2.43-1.4,2.05,1.18-2.44,1.45-2.05-1.18Zm.12,5.39s0,0,0,0l2.43-1.4,2.05,1.19-2.45,1.44-2-1.18Zm.37,17.76a0,0,0,0,1,0,0l2.43-1.4,2.58,1.49-2.44,1.45-2.58-1.49Zm.43-12.91s0,0,0,0l2.42-1.4,2.06,1.18-2.44,1.45-2.05-1.18Zm.45,4.64v0l2.43-1.4L263,208.9l-2.44,1.44-2.05-1.18Zm1.33,5.16a.05.05,0,0,1,0,0l2.42-1.4,2.06,1.19-2.45,1.45-2.05-1.19Zm.66-18.1s0,0,0,0l2.43-1.4L265,196l-2.44,1.45-2.05-1.18Zm.12,5.39s0,0,0,0l2.43-1.4,2.05,1.19-2.44,1.44-2.05-1.18Zm.8,4.85s0,0,0,0l2.43-1.4,2,1.18-2.44,1.45-2-1.18Zm.1,13.21s0,0,0,0l2.43-1.4,2.58,1.49-2.44,1.45-2.58-1.49Zm.35-8.57s0,0,0,0l2.42-1.4,2,1.19L264,212.28l-2-1.18Zm1.33,5.16a.05.05,0,0,1,0,0l2.42-1.4,2.06,1.19-2.45,1.45-2.05-1.19Zm.78-12.71s0,0,0,0l2.43-1.4,2,1.19-2.44,1.44L264,203.55Zm.8,4.85s0,0,0,0l2.43-1.4,2.05,1.18-2.44,1.45-2.05-1.18Zm.45,4.64s0,0,0,0l2.42-1.4,2.05,1.19-2.44,1.44L265.27,213Zm.1-14s0,0,0,0l2.43-1.4,2.05,1.19-2.44,1.45L265.37,199Zm.08,22.91a0,0,0,0,1,0,0l2.43-1.4,2.58,1.49L268,223.41l-2.58-1.49Zm1.15-3.72s0,0,0,0l2.42-1.41,2.06,1.19-2.45,1.45-2-1.19Zm.78-12.71a0,0,0,0,1,0,0l2.42-1.4,2.06,1.19-2.44,1.44-2.05-1.18Zm.8,4.85s0,0,0,0l2.43-1.4,2.05,1.18-2.44,1.45-2.05-1.18Zm.45,4.64s0,0,0,0l2.42-1.4,2.06,1.19-2.45,1.44L268.63,215Zm.1-14s0,0,0,0l2.43-1.4,2.05,1.19-2.44,1.45-2-1.19Zm.62,23.22a0,0,0,0,1,0,0l2.43-1.41,3.29,1.9-2.44,1.45-3.29-1.9Zm.61-4s0,0,0,0l2.42-1.41,6.48,3.74-2.44,1.45L270,220.13Zm.78-12.71s0,0,0,0l2.43-1.4,2.05,1.19-2.44,1.44-2.05-1.18Zm.8,4.85s0,0,0,0l2.43-1.4L276,212l-2.44,1.45-2.05-1.18Zm.45,4.64s0,0,0,0l2.42-1.4,2.06,1.19L274,218.1,272,216.92Zm.1-14s0,0,0,0l2.43-1.4,2.05,1.19-2.44,1.45-2.05-1.19Zm2,6.48s0,0,0,0l2.43-1.4,2.05,1.19-2.44,1.44-2.05-1.18Zm.55,17.86s0,0,0,0l2.42-1.4,2.06,1.18-2.45,1.45-2-1.18Zm.25-13s0,0,0,0l2.43-1.4,2,1.18L277,215.4l-2-1.18Zm.45,4.64,0,0,2.42-1.4,1.88,1.08a1.2,1.2,0,0,0,.59.13,1.33,1.33,0,0,0,.62-.13l3.19-1.84,2.4,1.39-6.23,3.64-4.89-2.82Zm.1-14s0,0,0,0l2.43-1.4,2.05,1.19L277.5,206l-2.05-1.19Zm2,6.48s0,0,0,0l2.42-1.4,2.06,1.19-2.44,1.44-2-1.18Zm.55,17.86s0,0,0,0l2.42-1.4,2.06,1.18-2.45,1.45-2-1.18Zm.25-13s0,0,0,0l2.43-1.4,2.05,1.18-2.44,1.45-2.05-1.18Zm2-8.55s0,0,0,0l2.42-1.4,2.06,1.18-2.45,1.45-2.05-1.18Zm.55,5.64s0,0,0,0l2.42-1.4,2.06,1.19-2.44,1.44-2.05-1.18Zm.55,17.86s0,0,0,0l2.43-1.4,2.05,1.18-2.45,1.45-2-1.18Zm.44-4.13a.05.05,0,0,1,0,0l2.42-1.4,2.06,1.19-2.45,1.45L281.81,227Zm1.82-17.43s0,0,0,0l2.42-1.4,2.05,1.18-2.44,1.45-2.05-1.18Zm.55,5.64s0,0,0,0l2.43-1.4,3.64,2.1-2.44,1.45-3.64-2.1Zm1.26,18.27s0,0,0,0l2.42-1.4,5.42,3.12-2.45,1.45-5.41-3.12Zm.6-12.81,0,0,2.43-1.4,2.05,1.19-2.44,1.44-2.05-1.18Zm.95-9.16s0,0,0,0l2.42-1.4,2.05,1.18L289,212.67,287,211.49Zm2.25,19.78s0,0,0,0l2.43-1.4,2.05,1.19-2.44,1.45-2.05-1.19Zm.16-8.68,0,0,2.43-1.4,2,1.19-2.44,1.44-2-1.18Zm.44-4.13s0,0,0,0l2.43-1.4,2,1.18-2.44,1.45-2-1.18Zm.51-5s0,0,0,0l2.42-1.4,2,1.18-2.44,1.45-2-1.18Zm1.81,23.91s0,0,0,0l2.42-1.4,2.06,1.18-2.45,1.45-2-1.18Zm.44-4.13s0,0,0,0l2.43-1.4,2,1.19-2.44,1.45-2-1.19Zm.16-8.68,0,0,2.43-1.4,2.05,1.19-2.44,1.44-2.05-1.18Zm.28,4.54a.1.1,0,0,1,0,0l2.43-1.4,2,1.19-2.44,1.44-2-1.18Zm.16-8.67s0,0,0,0l2.43-1.4,2.05,1.18-2.44,1.45-2.05-1.18Zm1.25-4.6s0,0,0,0l2.42-1.4,2.06,1.18L296.51,217l-2.05-1.18Zm1.07,23.48s0,0,0,0l6.22-3.6,2.05,1.19-6.23,3.64-2.06-1.18Zm.44-4.13s0,0,0,0l2.43-1.4,2.05,1.19L298,236.33,296,235.14Zm.44-4.14a.1.1,0,0,1,0,0l2.43-1.4,2.05,1.19-2.44,1.44L296.4,231Zm.16-8.67s0,0,0,0l2.43-1.4,2.05,1.18-2.44,1.45-2.05-1.18Zm.27,4.54s0,0,0,0l2.43-1.4,2.05,1.18-2.44,1.45-2.05-1.18Zm1-9.14s0,0,0,0l2.42-1.4,2.06,1.18-2.44,1.45-2.05-1.18Zm1.95,15.21a.1.1,0,0,1,0,0l2.43-1.4,2.05,1.19-2.44,1.45L299.76,233Zm.43-4.13s0,0,0,0l2.43-1.4,2.05,1.18L302.25,230l-2.05-1.18Zm.44-4.13s0,0,0,0l2.42-1.4,2.06,1.18-2.45,1.45-2-1.18Zm.54-5s0,0,0,0l2.42-1.4,2.06,1.18-2.44,1.45-2.05-1.18Zm1.95,15.21v0l6.23-3.59,2.05,1.18-6.24,3.65-2.05-1.19Zm.43-4.13s0,0,0,0l2.43-1.4,2.05,1.18-2.44,1.45-2.05-1.18Zm.44-4.13s0,0,0,0l2.42-1.4,2.06,1.18L306,227.81l-2-1.18Zm2.23-5.17v0l1-.61,2.06,1.19-1.06.65-2-1.18Zm1.13,7.11s0,0,0,0l2.42-1.4,2.06,1.18-2.45,1.45-2-1.18Zm2.23-5.17s0,0,0,0l1-.61,2.06,1.19-1.06.65-2-1.18Zm1.13,7.11s0,0,0,0l2.42-1.4,2.06,1.18-2.45,1.45-2-1.18Zm2.23-5.17s0,0,0,0l1-.61,2.06,1.19-1.06.65-2-1.18Zm3.35,1.94s0,0,0,0l1-.61,2.06,1.19-1.06.65-2-1.18Z"
             style="fill:#00E0BE"
             id="path36" />
        </g>
      </g>
      <g
         id="freepik--Device--inject-7">
        <polygon
           id="polygon40"
           points="385.58 235.17 408.53 221.92 293.77 155.66 270.82 168.91 385.58 235.17"
           style="opacity:0.15" />
        <g
           id="freepik--Monitor--inject-7">
          <path
             d="M320.59,213.6l-16.38-9.48c-1.69-1-2.54-2.25-2.54-3.53v-2.28l15.42-8.75a3.62,3.62,0,0,0,1.63-2.83v-20.2l28.62,16.54v20.2a3.62,3.62,0,0,1-1.63,2.83l-12.88,7.5A13.54,13.54,0,0,1,320.59,213.6Z"
             style="fill:#e6e6e6"
             id="path42" />
          <path
             d="M340.47,206.85v2.27l5.24-3a3.6,3.6,0,0,0,1.63-2.83v-20.2l-5.45-3.15c-.11,1.39-.24,2.82-.35,4.21l3.82,2.22v15.78a3.57,3.57,0,0,1-1.63,2.83Z"
             style="fill:#e0e0e0"
             id="path44" />
          <path
             d="M345.36,202.13a3.6,3.6,0,0,1-1.63,2.83l-10.9,6.36a13.54,13.54,0,0,1-12.24,0l-16.39-9.48c-3.38-1.94-3.38-5.11,0-7.06l10.91-6.36a3.6,3.6,0,0,0,1.63-2.82V169.81l28.62,16.54Z"
             style="fill:#f5f5f5"
             id="path46" />
          <path
             d="M311.79,190.34h0l3.32-1.92a3.6,3.6,0,0,0,1.63-2.82V169.81l28.62,16.54v15.78a3.6,3.6,0,0,1-1.63,2.83l-3.26,1.89Z"
             style="fill:#ebebeb"
             id="path48" />
          <path
             d="M301.67,198.31v2.28c0,1.28.85,2.55,2.53,3.53l16.39,9.47a12.32,12.32,0,0,0,5.84,1.45v-2.27a12.32,12.32,0,0,1-5.84-1.45l-16.39-9.48C302.52,200.87,301.67,199.59,301.67,198.31Z"
             style="fill:#ebebeb"
             id="path50" />
          <path
             d="M391.32,223.93a4.37,4.37,0,0,1-3.95-.07L276.68,160a4.49,4.49,0,0,1-2-3.53V59.54a3.83,3.83,0,0,1,5.87-3.39l110.68,63.91a4.49,4.49,0,0,1,2,3.53v96.88A4.36,4.36,0,0,1,391.32,223.93Z"
             style="fill:#455a64"
             id="path52" />
          <path
             d="M387.37,223.85,276.68,160a4.49,4.49,0,0,1-2-3.53V59.53c0-1.3.91-1.82,2-1.17l110.69,63.9a4.52,4.52,0,0,1,2,3.53v96.89C389.41,224,388.49,224.5,387.37,223.85Z"
             style="fill:#37474f"
             id="path54" />
          <path
             d="M387.67,224.26a3.81,3.81,0,0,0,5.56-3.54v-10.9L389.41,212v10.9C389.41,224.12,388.66,224.65,387.67,224.26Z"
             style="fill:#e0e0e0"
             id="path56" />
          <path
             d="M389.41,212v10.9c0,1.3-.92,1.83-2,1.18L276.68,160.2a4.49,4.49,0,0,1-2-3.53v-10.9Z"
             style="fill:#fff"
             id="path58" />
          <path
             d="M385.58,203.74V127.06a2.72,2.72,0,0,0-1.22-2.12L279.69,64.52c-.67-.39-1.22-.08-1.22.7V141.9a2.69,2.69,0,0,0,1.22,2.12l104.67,60.43C385,204.84,385.58,204.52,385.58,203.74Z"
             style="fill:#00E0BE"
             id="path60" />
          <path
             d="M385.58,203.74V127.06a2.72,2.72,0,0,0-1.22-2.12L279.69,64.52c-.67-.39-1.22-.08-1.22.7V141.9a2.69,2.69,0,0,0,1.22,2.12l104.67,60.43C385,204.84,385.58,204.52,385.58,203.74Z"
             style="fill:#fff;opacity:0.5"
             id="path62" />
          <path
             d="M332,183.07a4.24,4.24,0,0,1,1.91,3.31c0,1.22-.86,1.72-1.91,1.11a4.24,4.24,0,0,1-1.92-3.32C330.11,183,331,182.46,332,183.07Z"
             style="fill:#455a64"
             id="path64" />
          <path
             d="M388.81,123.78a4.4,4.4,0,0,1,.6,2V212l3.82-2.21V123.59a4.2,4.2,0,0,0-.6-2Z"
             style="fill:#263238"
             id="path66" />
        </g>
      </g>
      <g
         id="freepik--Window--inject-7">
        <g
           id="freepik--window--inject-7">
          <path
             d="M292.75,39.53a1.13,1.13,0,0,1,0-.18.08.08,0,0,1,0,0,.84.84,0,0,1,0-.17.8.8,0,0,1,.11-.25.33.33,0,0,1,.06-.1l.06-.07a.8.8,0,0,1,.13-.13h0a1,1,0,0,1,.17-.1,1.43,1.43,0,0,1,1.31.17l129.18,74.54a4.35,4.35,0,0,1,1.95,3.39v93.49h0v.43a1.33,1.33,0,0,1-.7,1.17l-.09.06-.1.06-.17,0a1,1,0,0,1-.25,0,1.29,1.29,0,0,1-.64-.19l-.05,0h0L422,210.6,294.69,137.12a4.32,4.32,0,0,1-1.95-3.38v-94C292.74,39.69,292.75,39.61,292.75,39.53Z"
             style="fill:#455a64"
             id="path70" />
          <path
             d="M293.38,38.48a1.43,1.43,0,0,1,1.31.17l129.18,74.54a4.35,4.35,0,0,1,1.95,3.39V123l2.49-1.46v-6.33a4.32,4.32,0,0,0-1.95-3.38L297.18,37.24a1.36,1.36,0,0,0-1.41-.12C295.42,37.34,293.8,38.26,293.38,38.48Z"
             style="fill:#00E0BE"
             id="path72" />
          <path
             d="M292.74,39.76c0-1.23.88-1.73,1.95-1.11L423.87,113.2a4.29,4.29,0,0,1,1.95,3.38V123L292.74,46.17Z"
             style="fill:#00E0BE"
             id="path74" />
          <g
             style="opacity:0.5"
             id="g78">
            <path
               d="M294.69,38.65,423.87,113.2a4,4,0,0,1,1.37,1.44l2.48-1.43a3.91,3.91,0,0,0-1.36-1.43L297.19,37.24a1.38,1.38,0,0,0-1.42-.12c-.35.22-2,1.14-2.38,1.36A1.38,1.38,0,0,1,294.69,38.65Z"
               style="fill:#fff"
               id="path76" />
          </g>
          <path
             d="M428.32,121.5v-6.34a4,4,0,0,0-.59-2l-2.49,1.43a3.84,3.84,0,0,1,.59,1.94V123Z"
             style="opacity:0.15"
             id="path80" />
          <path
             d="M421.42,114.54a2.91,2.91,0,0,1,1.1,2.34c0,.93-.49,1.41-1.1,1.06a2.91,2.91,0,0,1-1.1-2.34C420.32,114.67,420.81,114.19,421.42,114.54Z"
             style="fill:#455a64"
             id="path82" />
          <path
             d="M417.45,112.25a2.89,2.89,0,0,1,1.1,2.33c0,.94-.49,1.41-1.1,1.06a2.89,2.89,0,0,1-1.1-2.33C416.35,112.37,416.84,111.9,417.45,112.25Z"
             style="fill:#455a64"
             id="path84" />
          <path
             d="M413.48,110a2.91,2.91,0,0,1,1.1,2.34c0,.93-.49,1.41-1.1,1.06a2.92,2.92,0,0,1-1.1-2.34C412.38,110.07,412.87,109.6,413.48,110Z"
             style="fill:#455a64"
             id="path86" />
          <path
             d="M425.12,211.69l.1-.06,2.06-1.19a2.06,2.06,0,0,0,1-1.51,2.64,2.64,0,0,0,0-.28V121.49l-2.5,1.47v87.55a1.29,1.29,0,0,1-.61,1.11l-.06,0h0Z"
             style="fill:#263238;opacity:0.9"
             id="path88" />
        </g>
        <g
           id="freepik--Code--inject-7">
          <path
             d="M332.31,79.44l27.23,15.69a1.48,1.48,0,0,1,.7,1.15c0,.42-.31.58-.7.35L332.31,80.94a1.49,1.49,0,0,1-.69-1.15C331.62,79.37,331.93,79.22,332.31,79.44Z"
             style="fill:#00E0BE"
             id="path91" />
          <path
             d="M342.72,109.48,353,115.42a1.48,1.48,0,0,1,.69,1.15c0,.41-.31.57-.69.35L342.72,111a1.46,1.46,0,0,1-.7-1.15C342,109.42,342.33,109.26,342.72,109.48Z"
             style="fill:#e6e6e6"
             id="path93" />
          <path
             d="M342.72,115.49,353,121.42a1.51,1.51,0,0,1,.69,1.16c0,.41-.31.57-.69.35L342.72,117a1.48,1.48,0,0,1-.7-1.15C342,115.42,342.33,115.27,342.72,115.49Z"
             style="fill:#e6e6e6"
             id="path95" />
          <path
             d="M362.23,96.68l54.53,31.4a1.51,1.51,0,0,1,.69,1.16c0,.41-.31.57-.69.35l-54.53-31.4a1.51,1.51,0,0,1-.69-1.16C361.54,96.62,361.85,96.46,362.23,96.68Z"
             style="fill:#00E0BE"
             id="path97" />
          <path
             d="M342.94,151.61l16.6,9.61a1.46,1.46,0,0,1,.7,1.15c0,.41-.31.57-.7.35l-16.6-9.61a1.48,1.48,0,0,1-.69-1.15C342.25,151.55,342.56,151.39,342.94,151.61Z"
             style="fill:#00E0BE"
             id="path99" />
          <path
             d="M362.23,162.77l54.53,31.44a1.49,1.49,0,0,1,.69,1.15c0,.42-.31.57-.69.35l-54.53-31.44a1.49,1.49,0,0,1-.69-1.15C361.54,162.7,361.85,162.55,362.23,162.77Z"
             style="fill:#00E0BE"
             id="path101" />
          <path
             d="M332.31,85.46,346,93.34a1.49,1.49,0,0,1,.69,1.15c0,.42-.31.58-.69.35L332.31,87a1.48,1.48,0,0,1-.69-1.15C331.62,85.4,331.93,85.24,332.31,85.46Z"
             style="fill:#00E0BE"
             id="path103" />
          <path
             d="M332.31,85.46,346,93.34a1.49,1.49,0,0,1,.69,1.15c0,.42-.31.58-.69.35L332.31,87a1.48,1.48,0,0,1-.69-1.15C331.62,85.4,331.93,85.24,332.31,85.46Z"
             style="fill:#fff;opacity:0.6000000000000001"
             id="path105" />
          <path
             d="M332.31,91.46l6.42,3.7a1.49,1.49,0,0,1,.69,1.15c0,.41-.31.57-.69.35L332.31,93a1.49,1.49,0,0,1-.69-1.15C331.62,91.39,331.93,91.24,332.31,91.46Z"
             style="fill:#00E0BE"
             id="path107" />
          <path
             d="M332.31,91.46l6.42,3.7a1.49,1.49,0,0,1,.69,1.15c0,.41-.31.57-.69.35L332.31,93a1.49,1.49,0,0,1-.69-1.15C331.62,91.39,331.93,91.24,332.31,91.46Z"
             style="fill:#fff;opacity:0.6000000000000001"
             id="path109" />
          <path
             d="M332.31,103.47l6.42,3.7a1.51,1.51,0,0,1,.69,1.16c0,.41-.31.57-.69.35l-6.42-3.7a1.51,1.51,0,0,1-.69-1.16C331.62,103.41,331.93,103.25,332.31,103.47Z"
             style="fill:#00E0BE"
             id="path111" />
          <path
             d="M332.31,103.47l6.42,3.7a1.51,1.51,0,0,1,.69,1.16c0,.41-.31.57-.69.35l-6.42-3.7a1.51,1.51,0,0,1-.69-1.16C331.62,103.41,331.93,103.25,332.31,103.47Z"
             style="fill:#fff;opacity:0.6000000000000001"
             id="path113" />
          <path
             d="M332.31,109.48l6.42,3.7a1.49,1.49,0,0,1,.69,1.15c0,.42-.31.58-.69.35l-6.42-3.7a1.48,1.48,0,0,1-.69-1.15C331.62,109.42,331.93,109.26,332.31,109.48Z"
             style="fill:#00E0BE"
             id="path115" />
          <path
             d="M332.31,109.48l6.42,3.7a1.49,1.49,0,0,1,.69,1.15c0,.42-.31.58-.69.35l-6.42-3.7a1.48,1.48,0,0,1-.69-1.15C331.62,109.42,331.93,109.26,332.31,109.48Z"
             style="fill:#fff;opacity:0.6000000000000001"
             id="path117" />
          <path
             d="M348.72,94.89l8.22,4.77a1.48,1.48,0,0,1,.7,1.15c0,.42-.31.57-.7.35l-8.22-4.76a1.5,1.5,0,0,1-.7-1.16C348,94.83,348.33,94.67,348.72,94.89Z"
             style="fill:#00E0BE"
             id="path119" />
          <path
             d="M348.72,94.89l8.22,4.77a1.48,1.48,0,0,1,.7,1.15c0,.42-.31.57-.7.35l-8.22-4.76a1.5,1.5,0,0,1-.7-1.16C348,94.83,348.33,94.67,348.72,94.89Z"
             style="fill:#fff;opacity:0.6000000000000001"
             id="path121" />
          <path
             d="M361.44,138.33l55.32,31.85a1.48,1.48,0,0,1,.69,1.15c0,.41-.31.57-.69.35l-55.32-31.85a1.48,1.48,0,0,1-.7-1.15C360.74,138.26,361.05,138.11,361.44,138.33Z"
             style="fill:#fff"
             id="path123" />
          <path
             d="M408.53,159.4l8.23,4.76a1.49,1.49,0,0,1,.69,1.15c0,.42-.31.57-.69.35l-8.23-4.76a1.49,1.49,0,0,1-.69-1.15C407.84,159.33,408.15,159.17,408.53,159.4Z"
             style="fill:#fff"
             id="path125" />
          <path
             d="M350.52,126l55.32,31.85a1.51,1.51,0,0,1,.69,1.16c0,.41-.31.57-.69.35L350.52,127.5a1.5,1.5,0,0,1-.69-1.16C349.83,125.93,350.14,125.77,350.52,126Z"
             style="fill:#fff"
             id="path127" />
          <path
             d="M342.72,97.47l13.71,7.88a1.46,1.46,0,0,1,.7,1.15c0,.41-.31.57-.7.35L342.72,99a1.48,1.48,0,0,1-.7-1.15C342,97.4,342.33,97.24,342.72,97.47Z"
             style="fill:#00E0BE"
             id="path129" />
          <path
             d="M342.72,97.47l13.71,7.88a1.46,1.46,0,0,1,.7,1.15c0,.41-.31.57-.7.35L342.72,99a1.48,1.48,0,0,1-.7-1.15C342,97.4,342.33,97.24,342.72,97.47Z"
             style="fill:#fff;opacity:0.6000000000000001"
             id="path131" />
          <path
             d="M359.12,106.9,416.35,140a1.51,1.51,0,0,1,.69,1.16c0,.41-.31.57-.69.35L359.12,108.4a1.49,1.49,0,0,1-.69-1.15C358.43,106.83,358.74,106.68,359.12,106.9Z"
             style="fill:#00E0BE"
             id="path133" />
          <path
             d="M359.12,106.9,416.35,140a1.51,1.51,0,0,1,.69,1.16c0,.41-.31.57-.69.35L359.12,108.4a1.49,1.49,0,0,1-.69-1.15C358.43,106.83,358.74,106.68,359.12,106.9Z"
             style="fill:#fff;opacity:0.6000000000000001"
             id="path135" />
          <path
             d="M342.72,133.64l74,42.69a1.49,1.49,0,0,1,.69,1.15c0,.42-.31.58-.69.36l-74-42.7A1.48,1.48,0,0,1,342,134C342,133.57,342.33,133.42,342.72,133.64Z"
             style="fill:#e6e6e6"
             id="path137" />
          <path
             d="M332.31,127.63l6.42,3.7a1.49,1.49,0,0,1,.69,1.15c0,.42-.31.57-.69.35l-6.42-3.7a1.48,1.48,0,0,1-.69-1.15C331.62,127.57,331.93,127.41,332.31,127.63Z"
             style="fill:#00E0BE"
             id="path139" />
          <path
             d="M332.31,127.63l6.42,3.7a1.49,1.49,0,0,1,.69,1.15c0,.42-.31.57-.69.35l-6.42-3.7a1.48,1.48,0,0,1-.69-1.15C331.62,127.57,331.93,127.41,332.31,127.63Z"
             style="fill:#fff;opacity:0.6000000000000001"
             id="path141" />
          <path
             d="M342.72,139.64l74,42.7a1.49,1.49,0,0,1,.69,1.15c0,.42-.31.57-.69.35l-74-42.7A1.46,1.46,0,0,1,342,140C342,139.58,342.33,139.42,342.72,139.64Z"
             style="fill:#e6e6e6"
             id="path143" />
          <path
             d="M332.31,133.64l6.42,3.7a1.48,1.48,0,0,1,.69,1.15c0,.41-.31.57-.69.35l-6.42-3.7a1.49,1.49,0,0,1-.69-1.15C331.62,133.57,331.93,133.42,332.31,133.64Z"
             style="fill:#00E0BE"
             id="path145" />
          <path
             d="M332.31,133.64l6.42,3.7a1.48,1.48,0,0,1,.69,1.15c0,.41-.31.57-.69.35l-6.42-3.7a1.49,1.49,0,0,1-.69-1.15C331.62,133.57,331.93,133.42,332.31,133.64Z"
             style="fill:#fff;opacity:0.6000000000000001"
             id="path147" />
          <path
             d="M342.72,145.65l74,42.7a1.48,1.48,0,0,1,.69,1.15c0,.41-.31.57-.69.35l-74-42.7A1.48,1.48,0,0,1,342,146C342,145.58,342.33,145.43,342.72,145.65Z"
             style="fill:#e6e6e6"
             id="path149" />
          <path
             d="M332.31,139.64l6.42,3.7a1.49,1.49,0,0,1,.69,1.15c0,.42-.31.58-.69.36l-6.42-3.71a1.48,1.48,0,0,1-.69-1.15C331.62,139.58,331.93,139.42,332.31,139.64Z"
             style="fill:#00E0BE"
             id="path151" />
          <path
             d="M332.31,139.64l6.42,3.7a1.49,1.49,0,0,1,.69,1.15c0,.42-.31.58-.69.36l-6.42-3.71a1.48,1.48,0,0,1-.69-1.15C331.62,139.58,331.93,139.42,332.31,139.64Z"
             style="fill:#fff;opacity:0.6000000000000001"
             id="path153" />
          <g
             style="opacity:0.6000000000000001"
             id="g179">
            <path
               d="M322.31,73.41l3.77,2.18a1.51,1.51,0,0,1,.68,1.19v1.39c0,.43-.3.61-.68.39l-3.77-2.18a1.5,1.5,0,0,1-.69-1.18V73.81C321.62,73.37,321.93,73.2,322.31,73.41Z"
               style="fill:#fff"
               id="path155" />
            <path
               d="M322.31,79.48l3.77,2.18a1.51,1.51,0,0,1,.68,1.18v1.39c0,.44-.3.61-.68.4l-3.77-2.18a1.52,1.52,0,0,1-.69-1.19V79.87C321.62,79.44,321.93,79.26,322.31,79.48Z"
               style="fill:#fff"
               id="path157" />
            <path
               d="M322.31,85.54l3.77,2.18a1.51,1.51,0,0,1,.68,1.19V90.3c0,.43-.3.61-.68.39l-3.77-2.18a1.52,1.52,0,0,1-.69-1.18V85.94C321.62,85.5,321.93,85.33,322.31,85.54Z"
               style="fill:#fff"
               id="path159" />
            <path
               d="M322.31,91.61l3.77,2.18a1.51,1.51,0,0,1,.68,1.18v1.39c0,.44-.3.61-.68.4l-3.77-2.18a1.52,1.52,0,0,1-.69-1.19V92C321.62,91.57,321.93,91.39,322.31,91.61Z"
               style="fill:#fff"
               id="path161" />
            <path
               d="M322.31,97.67l3.77,2.18a1.51,1.51,0,0,1,.68,1.19v1.38c0,.44-.3.62-.68.4l-3.77-2.18a1.52,1.52,0,0,1-.69-1.18V98.07C321.62,97.63,321.93,97.45,322.31,97.67Z"
               style="fill:#fff"
               id="path163" />
            <path
               d="M322.31,103.74l3.77,2.18a1.49,1.49,0,0,1,.68,1.18v1.39c0,.44-.3.61-.68.4l-3.77-2.18a1.52,1.52,0,0,1-.69-1.19v-1.39C321.62,103.7,321.93,103.52,322.31,103.74Z"
               style="fill:#fff"
               id="path165" />
            <path
               d="M322.31,109.8l3.77,2.18a1.51,1.51,0,0,1,.68,1.19v1.38c0,.44-.3.62-.68.4l-3.77-2.18a1.52,1.52,0,0,1-.69-1.18V110.2C321.62,109.76,321.93,109.58,322.31,109.8Z"
               style="fill:#fff"
               id="path167" />
            <path
               d="M322.31,115.87l3.77,2.18a1.49,1.49,0,0,1,.68,1.18v1.39c0,.44-.3.61-.68.39l-3.77-2.17a1.52,1.52,0,0,1-.69-1.19v-1.39C321.62,115.83,321.93,115.65,322.31,115.87Z"
               style="fill:#fff"
               id="path169" />
            <path
               d="M322.31,121.93l3.77,2.18a1.51,1.51,0,0,1,.68,1.19v1.38c0,.44-.3.62-.68.4l-3.77-2.18a1.52,1.52,0,0,1-.69-1.19v-1.38C321.62,121.89,321.93,121.71,322.31,121.93Z"
               style="fill:#fff"
               id="path171" />
            <path
               d="M322.31,128l3.77,2.18a1.48,1.48,0,0,1,.68,1.18v1.39c0,.44-.3.61-.68.39L322.31,131a1.52,1.52,0,0,1-.69-1.19v-1.39C321.62,128,321.93,127.78,322.31,128Z"
               style="fill:#fff"
               id="path173" />
            <path
               d="M322.31,134.06l3.77,2.18a1.51,1.51,0,0,1,.68,1.19v1.38c0,.44-.3.62-.68.4L322.31,137a1.52,1.52,0,0,1-.69-1.19v-1.38C321.62,134,321.93,133.84,322.31,134.06Z"
               style="fill:#fff"
               id="path175" />
            <path
               d="M322.31,140.13l3.77,2.17a1.51,1.51,0,0,1,.68,1.19v1.39c0,.44-.3.61-.68.39l-3.77-2.17a1.52,1.52,0,0,1-.69-1.19v-1.39C321.62,140.09,321.93,139.91,322.31,140.13Z"
               style="fill:#fff"
               id="path177" />
          </g>
          <path
             d="M297.28,53.71l20.4,11.78a3,3,0,0,1,1.37,2.37V91.42c0,.87-.61,1.23-1.37.79l-20.4-11.78a3,3,0,0,1-1.37-2.37V54.51C295.91,53.63,296.52,53.28,297.28,53.71Z"
             style="fill:#37474f"
             id="path181" />
          <path
             d="M299.17,77.06l1.88,1.09a1.51,1.51,0,0,1,.7,1.15c0,.42-.32.57-.7.35l-1.88-1.09a1.48,1.48,0,0,1-.69-1.15C298.48,77,298.79,76.84,299.17,77.06Z"
             style="fill:#00E0BE"
             id="path183" />
          <path
             d="M299.17,77.06l1.88,1.09a1.51,1.51,0,0,1,.7,1.15c0,.42-.32.57-.7.35l-1.88-1.09a1.48,1.48,0,0,1-.69-1.15C298.48,77,298.79,76.84,299.17,77.06Z"
             style="fill:#fff;opacity:0.6000000000000001"
             id="path185" />
          <path
             d="M299.17,57.77l1.88,1.09a1.51,1.51,0,0,1,.7,1.15c0,.42-.32.57-.7.35l-1.88-1.08a1.51,1.51,0,0,1-.69-1.16C298.48,57.71,298.79,57.55,299.17,57.77Z"
             style="fill:#00E0BE"
             id="path187" />
          <path
             d="M299.17,57.77l1.88,1.09a1.51,1.51,0,0,1,.7,1.15c0,.42-.32.57-.7.35l-1.88-1.08a1.51,1.51,0,0,1-.69-1.16C298.48,57.71,298.79,57.55,299.17,57.77Z"
             style="fill:#fff;opacity:0.6000000000000001"
             id="path189" />
          <path
             d="M301.81,63.15l1.88,1.08a1.49,1.49,0,0,1,.69,1.15c0,.42-.31.58-.69.35l-1.88-1.08a1.49,1.49,0,0,1-.69-1.15C301.12,63.08,301.43,62.93,301.81,63.15Z"
             style="fill:#00E0BE"
             id="path191" />
          <path
             d="M301.81,63.15l1.88,1.08a1.49,1.49,0,0,1,.69,1.15c0,.42-.31.58-.69.35l-1.88-1.08a1.49,1.49,0,0,1-.69-1.15C301.12,63.08,301.43,62.93,301.81,63.15Z"
             style="fill:#fff;opacity:0.6000000000000001"
             id="path193" />
          <path
             d="M301.81,67l1.88,1.09a1.49,1.49,0,0,1,.69,1.15c0,.42-.31.57-.69.35l-1.88-1.08a1.49,1.49,0,0,1-.69-1.15C301.12,66.93,301.43,66.77,301.81,67Z"
             style="fill:#00E0BE"
             id="path195" />
          <path
             d="M301.81,67l1.88,1.09a1.49,1.49,0,0,1,.69,1.15c0,.42-.31.57-.69.35l-1.88-1.08a1.49,1.49,0,0,1-.69-1.15C301.12,66.93,301.43,66.77,301.81,67Z"
             style="fill:#fff;opacity:0.6000000000000001"
             id="path197" />
          <path
             d="M299.17,69.34l1.88,1.09a1.51,1.51,0,0,1,.7,1.15c0,.42-.32.57-.7.35l-1.88-1.08a1.5,1.5,0,0,1-.69-1.16C298.48,69.28,298.79,69.12,299.17,69.34Z"
             style="fill:#00E0BE"
             id="path199" />
          <path
             d="M299.17,69.34l1.88,1.09a1.51,1.51,0,0,1,.7,1.15c0,.42-.32.57-.7.35l-1.88-1.08a1.5,1.5,0,0,1-.69-1.16C298.48,69.28,298.79,69.12,299.17,69.34Z"
             style="fill:#fff;opacity:0.6000000000000001"
             id="path201" />
          <path
             d="M301.81,74.72l1.88,1.09a1.48,1.48,0,0,1,.69,1.15c0,.41-.31.57-.69.35l-1.88-1.09a1.48,1.48,0,0,1-.69-1.15C301.12,74.66,301.43,74.5,301.81,74.72Z"
             style="fill:#00E0BE"
             id="path203" />
          <path
             d="M301.81,74.72l1.88,1.09a1.48,1.48,0,0,1,.69,1.15c0,.41-.31.57-.69.35l-1.88-1.09a1.48,1.48,0,0,1-.69-1.15C301.12,74.66,301.43,74.5,301.81,74.72Z"
             style="fill:#fff;opacity:0.6000000000000001"
             id="path205" />
          <path
             d="M304.32,60.74l11.46,6.63a1.46,1.46,0,0,1,.7,1.15c0,.41-.31.57-.7.35l-11.46-6.62a1.48,1.48,0,0,1-.7-1.16C303.62,60.68,303.93,60.52,304.32,60.74Z"
             style="fill:#00E0BE"
             id="path207" />
          <path
             d="M304.32,60.74l11.46,6.63a1.46,1.46,0,0,1,.7,1.15c0,.41-.31.57-.7.35l-11.46-6.62a1.48,1.48,0,0,1-.7-1.16C303.62,60.68,303.93,60.52,304.32,60.74Z"
             style="fill:#fff;opacity:0.8"
             id="path209" />
          <path
             d="M304.32,80l11.46,6.63a1.46,1.46,0,0,1,.7,1.15c0,.41-.31.57-.7.35l-11.46-6.62a1.5,1.5,0,0,1-.7-1.16C303.62,80,303.93,79.81,304.32,80Z"
             style="fill:#00E0BE"
             id="path211" />
          <path
             d="M304.32,80l11.46,6.63a1.46,1.46,0,0,1,.7,1.15c0,.41-.31.57-.7.35l-11.46-6.62a1.5,1.5,0,0,1-.7-1.16C303.62,80,303.93,79.81,304.32,80Z"
             style="fill:#fff;opacity:0.8"
             id="path213" />
          <path
             d="M307,66.12l8.82,5.1a1.48,1.48,0,0,1,.7,1.16c0,.41-.31.57-.7.35L307,67.62a1.48,1.48,0,0,1-.7-1.15C306.26,66.05,306.57,65.9,307,66.12Z"
             style="fill:#00E0BE"
             id="path215" />
          <path
             d="M307,66.12l8.82,5.1a1.48,1.48,0,0,1,.7,1.16c0,.41-.31.57-.7.35L307,67.62a1.48,1.48,0,0,1-.7-1.15C306.26,66.05,306.57,65.9,307,66.12Z"
             style="fill:#fff;opacity:0.8"
             id="path217" />
          <path
             d="M307,70l8.82,5.11a1.48,1.48,0,0,1,.7,1.15c0,.42-.31.57-.7.35L307,71.48a1.48,1.48,0,0,1-.7-1.15C306.26,69.91,306.57,69.75,307,70Z"
             style="fill:#00E0BE"
             id="path219" />
          <path
             d="M307,70l8.82,5.11a1.48,1.48,0,0,1,.7,1.15c0,.42-.31.57-.7.35L307,71.48a1.48,1.48,0,0,1-.7-1.15C306.26,69.91,306.57,69.75,307,70Z"
             style="fill:#fff;opacity:0.8"
             id="path221" />
          <path
             d="M304.32,72.32l11.46,6.62a1.48,1.48,0,0,1,.7,1.15c0,.42-.31.57-.7.35l-11.46-6.62a1.48,1.48,0,0,1-.7-1.15C303.62,72.25,303.93,72.1,304.32,72.32Z"
             style="fill:#00E0BE"
             id="path223" />
          <path
             d="M304.32,72.32l11.46,6.62a1.48,1.48,0,0,1,.7,1.15c0,.42-.31.57-.7.35l-11.46-6.62a1.48,1.48,0,0,1-.7-1.15C303.62,72.25,303.93,72.1,304.32,72.32Z"
             style="fill:#fff;opacity:0.8"
             id="path225" />
          <path
             d="M307,77.69l8.82,5.11a1.46,1.46,0,0,1,.7,1.15c0,.41-.31.57-.7.35L307,79.19a1.46,1.46,0,0,1-.7-1.15C306.26,77.63,306.57,77.47,307,77.69Z"
             style="fill:#00E0BE"
             id="path227" />
          <path
             d="M307,77.69l8.82,5.11a1.46,1.46,0,0,1,.7,1.15c0,.41-.31.57-.7.35L307,79.19a1.46,1.46,0,0,1-.7-1.15C306.26,77.63,306.57,77.47,307,77.69Z"
             style="fill:#fff;opacity:0.8"
             id="path229" />
          <path
             d="M297.28,84.87l20.4,11.77A3,3,0,0,1,319.05,99v46.54c0,.88-.61,1.23-1.37.79l-20.4-11.78a3,3,0,0,1-1.37-2.37V85.66C295.91,84.78,296.52,84.43,297.28,84.87Z"
             style="fill:#37474f"
             id="path231" />
          <path
             d="M299.17,88.92,301.05,90a1.51,1.51,0,0,1,.7,1.15c0,.42-.32.57-.7.35l-1.88-1.08a1.49,1.49,0,0,1-.69-1.15C298.48,88.86,298.79,88.7,299.17,88.92Z"
             style="fill:#00E0BE"
             id="path233" />
          <path
             d="M299.17,88.92,301.05,90a1.51,1.51,0,0,1,.7,1.15c0,.42-.32.57-.7.35l-1.88-1.08a1.49,1.49,0,0,1-.69-1.15C298.48,88.86,298.79,88.7,299.17,88.92Z"
             style="fill:#fff;opacity:0.6000000000000001"
             id="path235" />
          <path
             d="M301.81,94.3l1.88,1.08a1.5,1.5,0,0,1,.69,1.16c0,.41-.31.57-.69.35l-1.88-1.09a1.49,1.49,0,0,1-.69-1.15C301.12,94.23,301.43,94.08,301.81,94.3Z"
             style="fill:#00E0BE"
             id="path237" />
          <path
             d="M301.81,94.3l1.88,1.08a1.5,1.5,0,0,1,.69,1.16c0,.41-.31.57-.69.35l-1.88-1.09a1.49,1.49,0,0,1-.69-1.15C301.12,94.23,301.43,94.08,301.81,94.3Z"
             style="fill:#fff;opacity:0.6000000000000001"
             id="path239" />
          <path
             d="M301.81,98.15l1.88,1.08a1.49,1.49,0,0,1,.69,1.15c0,.42-.31.57-.69.35l-1.88-1.08a1.49,1.49,0,0,1-.69-1.15C301.12,98.08,301.43,97.92,301.81,98.15Z"
             style="fill:#00E0BE"
             id="path241" />
          <path
             d="M301.81,98.15l1.88,1.08a1.49,1.49,0,0,1,.69,1.15c0,.42-.31.57-.69.35l-1.88-1.08a1.49,1.49,0,0,1-.69-1.15C301.12,98.08,301.43,97.92,301.81,98.15Z"
             style="fill:#fff;opacity:0.6000000000000001"
             id="path243" />
          <path
             d="M299.17,100.5l1.88,1.08a1.51,1.51,0,0,1,.7,1.15c0,.42-.32.57-.7.35L299.17,102a1.49,1.49,0,0,1-.69-1.15C298.48,100.43,298.79,100.27,299.17,100.5Z"
             style="fill:#00E0BE"
             id="path245" />
          <path
             d="M299.17,100.5l1.88,1.08a1.51,1.51,0,0,1,.7,1.15c0,.42-.32.57-.7.35L299.17,102a1.49,1.49,0,0,1-.69-1.15C298.48,100.43,298.79,100.27,299.17,100.5Z"
             style="fill:#fff;opacity:0.6000000000000001"
             id="path247" />
          <path
             d="M304.32,91.9l11.46,6.62a1.46,1.46,0,0,1,.7,1.15c0,.41-.31.57-.7.35L304.32,93.4a1.48,1.48,0,0,1-.7-1.15C303.62,91.83,303.93,91.67,304.32,91.9Z"
             style="fill:#00E0BE"
             id="path249" />
          <path
             d="M304.32,91.9l11.46,6.62a1.46,1.46,0,0,1,.7,1.15c0,.41-.31.57-.7.35L304.32,93.4a1.48,1.48,0,0,1-.7-1.15C303.62,91.83,303.93,91.67,304.32,91.9Z"
             style="fill:#fff;opacity:0.8"
             id="path251" />
          <path
             d="M307,97.27l8.82,5.11a1.46,1.46,0,0,1,.7,1.15c0,.41-.31.57-.7.35L307,98.77a1.48,1.48,0,0,1-.7-1.15C306.26,97.2,306.57,97.05,307,97.27Z"
             style="fill:#00E0BE"
             id="path253" />
          <path
             d="M307,97.27l8.82,5.11a1.46,1.46,0,0,1,.7,1.15c0,.41-.31.57-.7.35L307,98.77a1.48,1.48,0,0,1-.7-1.15C306.26,97.2,306.57,97.05,307,97.27Z"
             style="fill:#fff;opacity:0.8"
             id="path255" />
          <path
             d="M307,101.13l8.82,5.1a1.48,1.48,0,0,1,.7,1.15c0,.42-.31.58-.7.36L307,102.63a1.48,1.48,0,0,1-.7-1.15C306.26,101.06,306.57,100.9,307,101.13Z"
             style="fill:#00E0BE"
             id="path257" />
          <path
             d="M307,101.13l8.82,5.1a1.48,1.48,0,0,1,.7,1.15c0,.42-.31.58-.7.36L307,102.63a1.48,1.48,0,0,1-.7-1.15C306.26,101.06,306.57,100.9,307,101.13Z"
             style="fill:#fff;opacity:0.8"
             id="path259" />
          <path
             d="M304.32,103.47l11.46,6.62a1.48,1.48,0,0,1,.7,1.15c0,.42-.31.57-.7.35L304.32,105a1.48,1.48,0,0,1-.7-1.15C303.62,103.4,303.93,103.25,304.32,103.47Z"
             style="fill:#00E0BE"
             id="path261" />
          <path
             d="M304.32,103.47l11.46,6.62a1.48,1.48,0,0,1,.7,1.15c0,.42-.31.57-.7.35L304.32,105a1.48,1.48,0,0,1-.7-1.15C303.62,103.4,303.93,103.25,304.32,103.47Z"
             style="fill:#fff;opacity:0.8"
             id="path263" />
          <path
             d="M301.81,105.89l1.88,1.09a1.49,1.49,0,0,1,.69,1.15c0,.42-.31.57-.69.35l-1.88-1.08a1.49,1.49,0,0,1-.69-1.15C301.12,105.83,301.43,105.67,301.81,105.89Z"
             style="fill:#00E0BE"
             id="path265" />
          <path
             d="M301.81,105.89l1.88,1.09a1.49,1.49,0,0,1,.69,1.15c0,.42-.31.57-.69.35l-1.88-1.08a1.49,1.49,0,0,1-.69-1.15C301.12,105.83,301.43,105.67,301.81,105.89Z"
             style="fill:#fff;opacity:0.6000000000000001"
             id="path267" />
          <path
             d="M301.81,109.74l1.88,1.09a1.49,1.49,0,0,1,.69,1.15c0,.41-.31.57-.69.35l-1.88-1.09a1.48,1.48,0,0,1-.69-1.15C301.12,109.68,301.43,109.52,301.81,109.74Z"
             style="fill:#00E0BE"
             id="path269" />
          <path
             d="M301.81,109.74l1.88,1.09a1.49,1.49,0,0,1,.69,1.15c0,.41-.31.57-.69.35l-1.88-1.09a1.48,1.48,0,0,1-.69-1.15C301.12,109.68,301.43,109.52,301.81,109.74Z"
             style="fill:#fff;opacity:0.6000000000000001"
             id="path271" />
          <path
             d="M307,108.86l8.82,5.11a1.48,1.48,0,0,1,.7,1.15c0,.42-.31.58-.7.35l-8.82-5.1a1.48,1.48,0,0,1-.7-1.15C306.26,108.8,306.57,108.64,307,108.86Z"
             style="fill:#00E0BE"
             id="path273" />
          <path
             d="M307,108.86l8.82,5.11a1.48,1.48,0,0,1,.7,1.15c0,.42-.31.58-.7.35l-8.82-5.1a1.48,1.48,0,0,1-.7-1.15C306.26,108.8,306.57,108.64,307,108.86Z"
             style="fill:#fff;opacity:0.8"
             id="path275" />
          <path
             d="M307,112.72l8.82,5.11a1.48,1.48,0,0,1,.7,1.15c0,.42-.31.57-.7.35L307,114.22a1.46,1.46,0,0,1-.7-1.15C306.26,112.66,306.57,112.5,307,112.72Z"
             style="fill:#00E0BE"
             id="path277" />
          <path
             d="M307,112.72l8.82,5.11a1.48,1.48,0,0,1,.7,1.15c0,.42-.31.57-.7.35L307,114.22a1.46,1.46,0,0,1-.7-1.15C306.26,112.66,306.57,112.5,307,112.72Z"
             style="fill:#fff;opacity:0.8"
             id="path279" />
          <path
             d="M299.17,119.83l1.88,1.09a1.49,1.49,0,0,1,.7,1.15c0,.41-.32.57-.7.35l-1.88-1.09a1.48,1.48,0,0,1-.69-1.15C298.48,119.77,298.79,119.61,299.17,119.83Z"
             style="fill:#00E0BE"
             id="path281" />
          <path
             d="M299.17,119.83l1.88,1.09a1.49,1.49,0,0,1,.7,1.15c0,.41-.32.57-.7.35l-1.88-1.09a1.48,1.48,0,0,1-.69-1.15C298.48,119.77,298.79,119.61,299.17,119.83Z"
             style="fill:#fff;opacity:0.6000000000000001"
             id="path283" />
          <path
             d="M304.32,122.8l11.46,6.63a1.46,1.46,0,0,1,.7,1.15c0,.41-.31.57-.7.35l-11.46-6.62a1.48,1.48,0,0,1-.7-1.15C303.62,122.74,303.93,122.58,304.32,122.8Z"
             style="fill:#00E0BE"
             id="path285" />
          <path
             d="M304.32,122.8l11.46,6.63a1.46,1.46,0,0,1,.7,1.15c0,.41-.31.57-.7.35l-11.46-6.62a1.48,1.48,0,0,1-.7-1.15C303.62,122.74,303.93,122.58,304.32,122.8Z"
             style="fill:#fff;opacity:0.8"
             id="path287" />
          <path
             d="M301.81,125.23l1.88,1.09a1.48,1.48,0,0,1,.69,1.15c0,.41-.31.57-.69.35l-1.88-1.09a1.48,1.48,0,0,1-.69-1.15C301.12,125.17,301.43,125,301.81,125.23Z"
             style="fill:#00E0BE"
             id="path289" />
          <path
             d="M301.81,125.23l1.88,1.09a1.48,1.48,0,0,1,.69,1.15c0,.41-.31.57-.69.35l-1.88-1.09a1.48,1.48,0,0,1-.69-1.15C301.12,125.17,301.43,125,301.81,125.23Z"
             style="fill:#fff;opacity:0.6000000000000001"
             id="path291" />
          <path
             d="M301.81,129.08l1.88,1.08a1.51,1.51,0,0,1,.69,1.16c0,.41-.31.57-.69.35l-1.88-1.09a1.49,1.49,0,0,1-.69-1.15C301.12,129,301.43,128.86,301.81,129.08Z"
             style="fill:#00E0BE"
             id="path293" />
          <path
             d="M301.81,129.08l1.88,1.08a1.51,1.51,0,0,1,.69,1.16c0,.41-.31.57-.69.35l-1.88-1.09a1.49,1.49,0,0,1-.69-1.15C301.12,129,301.43,128.86,301.81,129.08Z"
             style="fill:#fff;opacity:0.6000000000000001"
             id="path295" />
          <path
             d="M307,128.2l8.82,5.11a1.46,1.46,0,0,1,.7,1.15c0,.41-.31.57-.7.35L307,129.7a1.46,1.46,0,0,1-.7-1.15C306.26,128.14,306.57,128,307,128.2Z"
             style="fill:#00E0BE"
             id="path297" />
          <path
             d="M307,128.2l8.82,5.11a1.46,1.46,0,0,1,.7,1.15c0,.41-.31.57-.7.35L307,129.7a1.46,1.46,0,0,1-.7-1.15C306.26,128.14,306.57,128,307,128.2Z"
             style="fill:#fff;opacity:0.8"
             id="path299" />
          <path
             d="M307,132.06l8.82,5.11a1.46,1.46,0,0,1,.7,1.15c0,.41-.31.57-.7.35L307,133.56a1.48,1.48,0,0,1-.7-1.15C306.26,132,306.57,131.84,307,132.06Z"
             style="fill:#00E0BE"
             id="path301" />
          <path
             d="M307,132.06l8.82,5.11a1.46,1.46,0,0,1,.7,1.15c0,.41-.31.57-.7.35L307,133.56a1.48,1.48,0,0,1-.7-1.15C306.26,132,306.57,131.84,307,132.06Z"
             style="fill:#fff;opacity:0.8"
             id="path303" />
          <path
             d="M301.81,113.57l1.88,1.09a1.48,1.48,0,0,1,.69,1.15c0,.41-.31.57-.69.35l-1.88-1.09a1.48,1.48,0,0,1-.69-1.15C301.12,113.51,301.43,113.35,301.81,113.57Z"
             style="fill:#00E0BE"
             id="path305" />
          <path
             d="M301.81,113.57l1.88,1.09a1.48,1.48,0,0,1,.69,1.15c0,.41-.31.57-.69.35l-1.88-1.09a1.48,1.48,0,0,1-.69-1.15C301.12,113.51,301.43,113.35,301.81,113.57Z"
             style="fill:#fff;opacity:0.6000000000000001"
             id="path307" />
          <path
             d="M299.17,115.92l1.88,1.09a1.49,1.49,0,0,1,.7,1.15c0,.41-.32.57-.7.35l-1.88-1.09a1.48,1.48,0,0,1-.69-1.15C298.48,115.86,298.79,115.7,299.17,115.92Z"
             style="fill:#00E0BE"
             id="path309" />
          <path
             d="M299.17,115.92l1.88,1.09a1.49,1.49,0,0,1,.7,1.15c0,.41-.32.57-.7.35l-1.88-1.09a1.48,1.48,0,0,1-.69-1.15C298.48,115.86,298.79,115.7,299.17,115.92Z"
             style="fill:#fff;opacity:0.6000000000000001"
             id="path311" />
          <path
             d="M307,116.55l8.82,5.11a1.46,1.46,0,0,1,.7,1.15c0,.41-.31.57-.7.35L307,118.05a1.46,1.46,0,0,1-.7-1.15C306.26,116.49,306.57,116.33,307,116.55Z"
             style="fill:#00E0BE"
             id="path313" />
          <path
             d="M307,116.55l8.82,5.11a1.46,1.46,0,0,1,.7,1.15c0,.41-.31.57-.7.35L307,118.05a1.46,1.46,0,0,1-.7-1.15C306.26,116.49,306.57,116.33,307,116.55Z"
             style="fill:#fff;opacity:0.8"
             id="path315" />
          <path
             d="M304.32,118.89l11.46,6.63a1.46,1.46,0,0,1,.7,1.15c0,.41-.31.57-.7.35l-11.46-6.62a1.5,1.5,0,0,1-.7-1.16C303.62,118.83,303.93,118.67,304.32,118.89Z"
             style="fill:#00E0BE"
             id="path317" />
          <path
             d="M304.32,118.89l11.46,6.63a1.46,1.46,0,0,1,.7,1.15c0,.41-.31.57-.7.35l-11.46-6.62a1.5,1.5,0,0,1-.7-1.16C303.62,118.83,303.93,118.67,304.32,118.89Z"
             style="fill:#fff;opacity:0.8"
             id="path319" />
          <path
             d="M299.17,131.48l1.88,1.09a1.49,1.49,0,0,1,.7,1.15c0,.41-.32.57-.7.35L299.17,133a1.48,1.48,0,0,1-.69-1.15C298.48,131.42,298.79,131.26,299.17,131.48Z"
             style="fill:#00E0BE"
             id="path321" />
          <path
             d="M299.17,131.48l1.88,1.09a1.49,1.49,0,0,1,.7,1.15c0,.41-.32.57-.7.35L299.17,133a1.48,1.48,0,0,1-.69-1.15C298.48,131.42,298.79,131.26,299.17,131.48Z"
             style="fill:#fff;opacity:0.6000000000000001"
             id="path323" />
          <path
             d="M304.32,134.46l11.46,6.62a1.46,1.46,0,0,1,.7,1.15c0,.41-.31.57-.7.35L304.32,136a1.48,1.48,0,0,1-.7-1.15C303.62,134.39,303.93,134.23,304.32,134.46Z"
             style="fill:#00E0BE"
             id="path325" />
          <path
             d="M304.32,134.46l11.46,6.62a1.46,1.46,0,0,1,.7,1.15c0,.41-.31.57-.7.35L304.32,136a1.48,1.48,0,0,1-.7-1.15C303.62,134.39,303.93,134.23,304.32,134.46Z"
             style="fill:#fff;opacity:0.8"
             id="path327" />
        </g>
      </g>
      <g
         id="g433">
        <g
           style="opacity:0.8"
           id="g333">
          <path
             d="M410.78,150.29v76.38a3.51,3.51,0,0,0,1.59,2.75l43.88,25.32a1.1,1.1,0,0,0,.53.15l.2,0,.13,0,.09,0,.09-.06.09-.08a1.22,1.22,0,0,0,.29-.42,1.88,1.88,0,0,0,.17-.8v-76a3.5,3.5,0,0,0-1.59-2.75l-43.88-25.29a1.16,1.16,0,0,0-1.07-.14l-.13.08h0l-.11.1a.21.21,0,0,0,0,.06.26.26,0,0,0-.05.09.54.54,0,0,0-.1.2.58.58,0,0,0,0,.14,0,0,0,0,0,0,0l0,.15C410.79,150.16,410.78,150.23,410.78,150.29Z"
             style="fill:#455a64"
             id="path331" />
        </g>
        <path
           d="M411.3,149.24a1.16,1.16,0,0,1,1.07.14l43.88,25.29a3.5,3.5,0,0,1,1.59,2.75v5.18l2.53-1.46V176a3.48,3.48,0,0,0-1.59-2.74L414.9,148a1.11,1.11,0,0,0-1.15-.1C413.46,148,411.64,149.07,411.3,149.24Z"
           style="fill:#00E0BE"
           id="path335" />
        <path
           d="M410.79,150.28c0-1,.71-1.4,1.58-.9l43.88,25.29a3.51,3.51,0,0,1,1.59,2.75v5.18l-47-27.11Z"
           style="fill:#00E0BE"
           id="path337" />
        <g
           style="opacity:0.5"
           id="g341">
          <path
             d="M412.37,149.38l43.88,25.29a3.27,3.27,0,0,1,1.12,1.18l2.52-1.45a3.23,3.23,0,0,0-1.11-1.15L414.9,148a1.11,1.11,0,0,0-1.15-.1c-.28.18-2.11,1.2-2.44,1.38A1.11,1.11,0,0,1,412.37,149.38Z"
             style="fill:#fff"
             id="path339" />
        </g>
        <path
           d="M460.37,181.15V176a3.36,3.36,0,0,0-.48-1.59l-2.53,1.44a3.16,3.16,0,0,1,.48,1.58v5.18Z"
           style="opacity:0.15"
           id="path343" />
        <path
           d="M455.53,176.8a2.37,2.37,0,0,1,.9,1.9c0,.76-.4,1.15-.9.86a2.36,2.36,0,0,1-.9-1.89C454.63,176.9,455,176.52,455.53,176.8Z"
           style="fill:#455a64"
           id="path345" />
        <path
           d="M452.3,174.94a2.33,2.33,0,0,1,.9,1.89c0,.77-.4,1.15-.9.87a2.39,2.39,0,0,1-.89-1.9C451.41,175,451.81,174.65,452.3,174.94Z"
           style="fill:#455a64"
           id="path347" />
        <path
           d="M449.08,173.07A2.39,2.39,0,0,1,450,175c0,.76-.4,1.15-.89.86a2.35,2.35,0,0,1-.9-1.9C448.18,173.17,448.58,172.79,449.08,173.07Z"
           style="fill:#455a64"
           id="path349" />
        <g
           style="opacity:0.9"
           id="g353">
          <path
             d="M457.26,254.74l.19-.11.49-.28h0a1.74,1.74,0,0,1,.26-.15h0l.42-.24.85-.48.2-.11a.9.9,0,0,0,.27-.21,1.1,1.1,0,0,0,.21-.33,1.89,1.89,0,0,0,.19-.84V181.14l-2.53,1.46v70.81a2.31,2.31,0,0,1-.17.8,1.22,1.22,0,0,1-.29.42.24.24,0,0,1-.09.08Z"
             style="fill:#37474f"
             id="path351" />
        </g>
        <path
           d="M414.43,164.25a.25.25,0,0,1,.08-.2l1.14-1s0,0,.05,0h0a.17.17,0,0,1,.09.11.29.29,0,0,1,0,.16v.79a1.09,1.09,0,0,1,0,.22.83.83,0,0,1-.08.12l-.61.55.61,1.25c0,.08.06.15.08.22a1.44,1.44,0,0,1,0,.24v.79c0,.06,0,.1,0,.12a.07.07,0,0,1-.09,0l0,0-.05-.07-1.14-2.37a.67.67,0,0,1-.08-.29Z"
           style="fill:#00E0BE"
           id="path355" />
        <path
           d="M418.6,163.15a.3.3,0,0,1,.09-.13s.09,0,.17,0l.42.25a.17.17,0,0,1,.09.11.29.29,0,0,1,0,.16.2.2,0,0,1,0,.07l-2,6.08a.26.26,0,0,1-.08.13s-.09,0-.17,0l-.41-.24a.2.2,0,0,1-.09-.11.32.32,0,0,1,0-.16s0-.05,0-.07Z"
           style="fill:#00E0BE"
           id="path357" />
        <path
           d="M421.63,169a.26.26,0,0,1-.08.21l-1.14,1a.07.07,0,0,1-.06,0h0a.2.2,0,0,1-.09-.11.32.32,0,0,1,0-.16v-.79a1,1,0,0,1,0-.22.35.35,0,0,1,.08-.13l.6-.55-.6-1.24a2.11,2.11,0,0,1-.08-.22,1.44,1.44,0,0,1,0-.24v-.8a.12.12,0,0,1,0-.11s.05,0,.09,0l0,0a.22.22,0,0,1,.06.07l1.14,2.36a.67.67,0,0,1,.08.3Z"
           style="fill:#00E0BE"
           id="path359" />
        <path
           d="M424.8,172.11a.29.29,0,0,1,.11.13.48.48,0,0,1,0,.2v.87a.18.18,0,0,1,0,.14.08.08,0,0,1-.11,0l-.54-.31a.29.29,0,0,1-.11-.13.49.49,0,0,1,0-.2V172a.21.21,0,0,1,0-.15.08.08,0,0,1,.11,0Z"
           style="fill:#00E0BE"
           id="path361" />
        <path
           d="M426.6,173.15a.29.29,0,0,1,.11.13.48.48,0,0,1,0,.2v.87a.18.18,0,0,1,0,.14.09.09,0,0,1-.11,0l-.54-.31a.36.36,0,0,1-.11-.13.53.53,0,0,1-.05-.2V173a.21.21,0,0,1,.05-.15.08.08,0,0,1,.11,0Z"
           style="fill:#00E0BE"
           id="path363" />
        <path
           d="M428.4,174.19a.25.25,0,0,1,.11.13.48.48,0,0,1,0,.2v.87a.2.2,0,0,1,0,.14.09.09,0,0,1-.11,0l-.54-.31a.33.33,0,0,1-.11-.14.45.45,0,0,1-.05-.19V174a.2.2,0,0,1,.05-.14.09.09,0,0,1,.11,0Z"
           style="fill:#00E0BE"
           id="path365" />
        <path
           d="M414.91,171.17l26.36,15.22a1.2,1.2,0,0,1,.57.94c0,.34-.25.46-.57.28l-26.36-15.22a1.21,1.21,0,0,1-.56-.93C414.35,171.12,414.6,171,414.91,171.17Z"
           style="fill:#00E0BE"
           id="path367" />
        <path
           d="M423.37,190.71l26.36,15.22a1.19,1.19,0,0,1,.57.93c0,.34-.25.47-.57.29l-26.36-15.22a1.21,1.21,0,0,1-.56-.94C422.81,190.65,423.06,190.53,423.37,190.71Z"
           style="fill:#e6e6e6"
           id="path369" />
        <path
           d="M423.37,200.47,436,207.76a1.21,1.21,0,0,1,.56.94c0,.34-.25.46-.56.28l-12.62-7.29a1.19,1.19,0,0,1-.56-.93C422.81,200.42,423.06,200.29,423.37,200.47Z"
           style="fill:#e6e6e6"
           id="path371" />
        <path
           d="M443.46,187.65l10.5,6a1.19,1.19,0,0,1,.57.93c0,.34-.26.47-.57.29l-10.5-6a1.19,1.19,0,0,1-.56-.93C442.9,187.6,443.15,187.47,443.46,187.65Z"
           style="fill:#00E0BE"
           id="path373" />
        <path
           d="M414.91,224.89l26.36,15.22a1.19,1.19,0,0,1,.57.93c0,.34-.25.47-.57.29l-26.36-15.22a1.21,1.21,0,0,1-.56-.94C414.35,224.83,414.6,224.71,414.91,224.89Z"
           style="fill:#00E0BE"
           id="path375" />
        <path
           d="M443.46,241.37l10.5,6a1.22,1.22,0,0,1,.57.94c0,.33-.26.46-.57.28l-10.5-6a1.21,1.21,0,0,1-.56-.94C442.9,241.32,443.15,241.19,443.46,241.37Z"
           style="fill:#00E0BE"
           id="path377" />
        <path
           d="M443.46,226.74l10.5,6a1.2,1.2,0,0,1,.57.93c0,.34-.26.47-.57.29l-10.5-6a1.21,1.21,0,0,1-.56-.94C442.9,226.69,443.15,226.56,443.46,226.74Z"
           style="fill:#00E0BE"
           id="path379" />
        <path
           d="M443.46,231.63l10.5,6a1.22,1.22,0,0,1,.57.93c0,.34-.26.47-.57.29l-10.5-6a1.21,1.21,0,0,1-.56-.94C442.9,231.57,443.15,231.45,443.46,231.63Z"
           style="fill:#00E0BE"
           id="path381" />
        <path
           d="M434.5,221.56l5.9,3.41a1.18,1.18,0,0,1,.57.93c0,.34-.25.47-.57.29l-5.9-3.41a1.21,1.21,0,0,1-.56-.94C433.94,221.51,434.19,221.38,434.5,221.56Z"
           style="fill:#00E0BE"
           id="path383" />
        <path
           d="M414.91,176.07l15.38,8.87a1.21,1.21,0,0,1,.56.93c0,.34-.25.47-.56.29l-15.38-8.87a1.21,1.21,0,0,1-.56-.94C414.35,176,414.6,175.89,414.91,176.07Z"
           style="fill:#00E0BE"
           id="path385" />
        <path
           d="M414.91,176.07l15.38,8.87a1.21,1.21,0,0,1,.56.93c0,.34-.25.47-.56.29l-15.38-8.87a1.21,1.21,0,0,1-.56-.94C414.35,176,414.6,175.89,414.91,176.07Z"
           style="fill:#fff;opacity:0.6000000000000001"
           id="path387" />
        <path
           d="M414.91,180.94l5.22,3a1.21,1.21,0,0,1,.56.93c0,.34-.25.47-.56.29l-5.22-3a1.21,1.21,0,0,1-.56-.93C414.35,180.89,414.6,180.76,414.91,180.94Z"
           style="fill:#00E0BE"
           id="path389" />
        <path
           d="M414.91,180.94l5.22,3a1.21,1.21,0,0,1,.56.93c0,.34-.25.47-.56.29l-5.22-3a1.21,1.21,0,0,1-.56-.93C414.35,180.89,414.6,180.76,414.91,180.94Z"
           style="fill:#fff;opacity:0.6000000000000001"
           id="path391" />
        <path
           d="M414.91,185.82l5.22,3a1.21,1.21,0,0,1,.56.94c0,.33-.25.46-.56.28l-5.22-3a1.18,1.18,0,0,1-.56-.93C414.35,185.77,414.6,185.64,414.91,185.82Z"
           style="fill:#00E0BE"
           id="path393" />
        <path
           d="M414.91,185.82l5.22,3a1.21,1.21,0,0,1,.56.94c0,.33-.25.46-.56.28l-5.22-3a1.18,1.18,0,0,1-.56-.93C414.35,185.77,414.6,185.64,414.91,185.82Z"
           style="fill:#fff;opacity:0.6000000000000001"
           id="path395" />
        <path
           d="M414.91,190.71l5.22,3a1.19,1.19,0,0,1,.56.93c0,.34-.25.47-.56.29l-5.22-3a1.21,1.21,0,0,1-.56-.94C414.35,190.65,414.6,190.53,414.91,190.71Z"
           style="fill:#00E0BE"
           id="path397" />
        <path
           d="M414.91,190.71l5.22,3a1.21,1.21,0,0,1,.56.94c0,.34-.25.46-.56.28l-5.22-3a1.21,1.21,0,0,1-.56-.94C414.35,190.65,414.6,190.53,414.91,190.71Z"
           style="fill:#fff;opacity:0.6000000000000001"
           id="path399" />
        <path
           d="M423.37,195.59l15.38,8.87a1.21,1.21,0,0,1,.56.94c0,.33-.25.46-.56.28l-15.38-8.87a1.21,1.21,0,0,1-.56-.94C422.81,195.54,423.06,195.41,423.37,195.59Z"
           style="fill:#00E0BE;opacity:0.6000000000000001"
           id="path401" />
        <path
           d="M440.93,205.72l6.69,3.88a1.18,1.18,0,0,1,.56.93c0,.34-.25.47-.56.29l-6.69-3.88a1.21,1.21,0,0,1-.56-.93C440.37,205.67,440.62,205.54,440.93,205.72Z"
           style="fill:#00E0BE;opacity:0.6000000000000001"
           id="path403" />
        <path
           d="M423.37,195.59l15.38,8.87a1.21,1.21,0,0,1,.56.94c0,.33-.25.46-.56.28l-15.38-8.87a1.21,1.21,0,0,1-.56-.94C422.81,195.54,423.06,195.41,423.37,195.59Z"
           style="fill:#fff;opacity:0.6000000000000001"
           id="path405" />
        <path
           d="M440.93,205.72l6.69,3.88a1.18,1.18,0,0,1,.56.93c0,.34-.25.47-.56.29l-6.69-3.88a1.21,1.21,0,0,1-.56-.93C440.37,205.67,440.62,205.54,440.93,205.72Z"
           style="fill:#fff;opacity:0.6000000000000001"
           id="path407" />
        <path
           d="M414.91,195.59l5.22,3a1.21,1.21,0,0,1,.56.93c0,.34-.25.47-.56.29l-5.22-3a1.21,1.21,0,0,1-.56-.93C414.35,195.54,414.6,195.41,414.91,195.59Z"
           style="fill:#00E0BE"
           id="path409" />
        <path
           d="M414.91,195.59l5.22,3a1.21,1.21,0,0,1,.56.93c0,.34-.25.47-.56.29l-5.22-3a1.21,1.21,0,0,1-.56-.93C414.35,195.54,414.6,195.41,414.91,195.59Z"
           style="fill:#fff;opacity:0.6000000000000001"
           id="path411" />
        <path
           d="M432.47,186.2l6.69,3.87a1.21,1.21,0,0,1,.56.94c0,.33-.25.46-.56.28l-6.69-3.87a1.21,1.21,0,0,1-.56-.94C431.91,186.15,432.16,186,432.47,186.2Z"
           style="fill:#00E0BE"
           id="path413" />
        <path
           d="M432.47,186.2l6.69,3.87a1.21,1.21,0,0,1,.56.94c0,.33-.25.46-.56.28l-6.69-3.87a1.21,1.21,0,0,1-.56-.94C431.91,186.15,432.16,186,432.47,186.2Z"
           style="fill:#fff;opacity:0.6000000000000001"
           id="path415" />
        <path
           d="M429.71,209l15.38,8.87a1.22,1.22,0,0,1,.57.94c0,.34-.26.46-.57.29l-15.38-8.88a1.21,1.21,0,0,1-.56-.93C429.15,209,429.4,208.83,429.71,209Z"
           style="fill:#fff"
           id="path417" />
        <path
           d="M438.59,219,454,227.91a1.22,1.22,0,0,1,.57.94c0,.33-.26.46-.57.28l-15.37-8.87a1.2,1.2,0,0,1-.57-.94C438,219,438.27,218.86,438.59,219Z"
           style="fill:#fff"
           id="path419" />
        <path
           d="M447.28,219.15,454,223a1.22,1.22,0,0,1,.57.93c0,.34-.26.47-.57.29l-6.68-3.87a1.2,1.2,0,0,1-.57-.94C446.71,219.09,447,219,447.28,219.15Z"
           style="fill:#fff"
           id="path421" />
        <path
           d="M447.28,238.49l6.68,3.87a1.22,1.22,0,0,1,.57.94c0,.33-.26.46-.57.28l-6.68-3.87a1.2,1.2,0,0,1-.57-.94C446.71,238.44,447,238.31,447.28,238.49Z"
           style="fill:#e6e6e6"
           id="path423" />
        <path
           d="M423.37,185.82l15.38,8.88a1.19,1.19,0,0,1,.56.93c0,.34-.25.47-.56.29L423.37,187a1.18,1.18,0,0,1-.56-.93C422.81,185.77,423.06,185.64,423.37,185.82Z"
           style="fill:#00E0BE"
           id="path425" />
        <path
           d="M423.37,185.82l15.38,8.88a1.19,1.19,0,0,1,.56.93c0,.34-.25.47-.56.29L423.37,187a1.18,1.18,0,0,1-.56-.93C422.81,185.77,423.06,185.64,423.37,185.82Z"
           style="fill:#fff;opacity:0.6000000000000001"
           id="path427" />
        <path
           d="M440.93,196l6.69,3.87a1.21,1.21,0,0,1,.56.94c0,.33-.25.46-.56.28l-6.69-3.87a1.21,1.21,0,0,1-.56-.94C440.37,195.9,440.62,195.78,440.93,196Z"
           style="fill:#00E0BE"
           id="path429" />
        <path
           d="M440.93,196l6.69,3.87a1.21,1.21,0,0,1,.56.94c0,.33-.25.46-.56.28l-6.69-3.87a1.21,1.21,0,0,1-.56-.94C440.37,195.9,440.62,195.78,440.93,196Z"
           style="fill:#fff;opacity:0.6000000000000001"
           id="path431" />
      </g>
      <g
         id="freepik--Mouse--inject-7">
        <path
           d="M336.12,251.91l9.42,5.44a10.38,10.38,0,0,0,10.4-.55l15.55-11.35c2.77-2,2.61-5-.36-6.77l-4.72-2.74a12.83,12.83,0,0,0-10.93-.33L336.29,246C333.22,247.55,333.14,250.19,336.12,251.91Z"
           style="opacity:0.15"
           id="path435" />
        <path
           d="M371.74,240.51,361,248.92l-7.94,6.21a7,7,0,0,1-2.53.61,6.88,6.88,0,0,1-3.77-.79l-8.43-4.87a0,0,0,0,1,0,0l-.05,0a6,6,0,0,1-1.71-8.53l.25-.35a11.24,11.24,0,0,1,6.79-4.3l4.27-.85c6.92-1.41,12.59-2.09,13.25-1.64l10.57,6.12Z"
           style="fill:#37474f"
           id="path437" />
        <path
           d="M365.73,245.22l.61-.48-9.49-5.47,8.3-2.57-.84-.49-8.3,2.57-5.66-3.26-1.07.2Z"
           style="fill:#00E0BE"
           id="path439" />
        <path
           d="M354,254.62l0,0h0l7.56-5.46,10.19-7.36V240.6a.1.1,0,0,0-.05-.09l-.06,0c-.76-.26-5.18,1.07-10.52,3.19l-3.54,1.41a11.21,11.21,0,0,0-7.1,10.47v.18a7,7,0,0,0,2.53-.61Z"
           style="fill:#263238"
           id="path441" />
      </g>
    </g>
  </g>
  <g
     id="freepik--Plant--inject-7">
    <g
       id="freepik--Pot--inject-7">
      <path
         d="M372.7,405.51c-10.38-10.71-16.47-54.29-6.35-62.78h51.5c10.12,8.49,4,52.06-6.34,62.77l-.29.3c-.11.12-.23.24-.35.35-.3.29-.61.57-.94.84l-.25.2c-.25.2-.5.4-.78.6a15.26,15.26,0,0,1-1.34.87c-8.54,5-22.38,5-30.92,0h0c-.45-.26-.9-.56-1.35-.88-.26-.18-.49-.37-.73-.56l-.3-.24a12.15,12.15,0,0,1-.91-.81c-.14-.13-.28-.27-.41-.41A2.83,2.83,0,0,1,372.7,405.51Z"
         style="fill:#00E0BE"
         id="path446" />
      <g
         style="opacity:0.5"
         id="g450">
        <path
           d="M372.7,405.51c-10.38-10.71-16.47-54.29-6.35-62.78h51.5c10.12,8.49,4,52.06-6.34,62.77l-.29.3c-.11.12-.23.24-.35.35-.3.29-.61.57-.94.84l-.25.2c-.25.2-.5.4-.78.6a15.26,15.26,0,0,1-1.34.87c-8.54,5-22.38,5-30.92,0h0c-.45-.26-.9-.56-1.35-.88-.26-.18-.49-.37-.73-.56l-.3-.24a12.15,12.15,0,0,1-.91-.81c-.14-.13-.28-.27-.41-.41A2.83,2.83,0,0,1,372.7,405.51Z"
           style="fill:#fff"
           id="path448" />
      </g>
      <path
         d="M413.38,339.31c11.75,6.86,11.75,18,0,24.85s-30.81,6.86-42.56,0-11.75-18,0-24.85S401.63,332.45,413.38,339.31Z"
         style="fill:#00E0BE"
         id="path452" />
      <g
         style="opacity:0.7000000000000001"
         id="g456">
        <path
           d="M413.38,339.31c11.75,6.86,11.75,18,0,24.85s-30.81,6.86-42.56,0-11.75-18,0-24.85S401.63,332.45,413.38,339.31Z"
           style="fill:#fff"
           id="path454" />
      </g>
      <path
         d="M407.73,342.61c8.63,5,8.63,13.21,0,18.25s-22.63,5-31.26,0-8.63-13.21,0-18.25S399.1,337.57,407.73,342.61Z"
         style="fill:#00E0BE"
         id="path458" />
      <g
         style="opacity:0.30000000000000004"
         id="g462">
        <path
           d="M407.73,342.61c8.63,5,8.63,13.21,0,18.25s-22.63,5-31.26,0-8.63-13.21,0-18.25S399.1,337.57,407.73,342.61Z"
           id="path460" />
      </g>
      <path
         d="M376.47,351.27c8.63-5,22.63-5,31.26,0a14.36,14.36,0,0,1,5.16,4.79,14.38,14.38,0,0,1-5.16,4.8c-8.63,5-22.63,5-31.26,0a14.5,14.5,0,0,1-5.17-4.8A14.48,14.48,0,0,1,376.47,351.27Z"
         style="fill:#f5f5f5"
         id="path464" />
      <g
         id="freepik--Plants--inject-7">
        <path
           d="M387.88,329.28a14.43,14.43,0,0,1-1.31-3.76c-.58-3.14.2-6.73,2.74-8.67,1-.76,2.33-1.33,2.76-2.53a4.14,4.14,0,0,0,0-2.07c-.47-2.68-1.37-5.44-.63-8.05a9,9,0,0,1,5-5.36,27,27,0,0,1,7.27-1.9,11.77,11.77,0,0,0,3.85-1.1c1.44-.81,1.89-2.23,2.78-3.48a24.3,24.3,0,0,1,3.54-3.77c2.62-2.34,5.9-4.27,9.53-4.11,7.58.33,7.36,6.85,5.18,11.79s-2.76,6.55,2,11.7,4.74,11.5-.91,15-9.32,4-7.08,10.86c2,6.11,3.23,11.32-2.41,17.85-3.65,4.22-8.64,7.23-14.88,7A25.12,25.12,0,0,1,398,357c-1.72-.85-.56-2.18-1.14-3.88l-3.74-10.92a81.09,81.09,0,0,0-3-8.62C389.43,332.08,388.59,330.71,387.88,329.28Z"
           style="fill:#00E0BE"
           id="path466" />
        <g
           style="opacity:0.25"
           id="g470">
          <path
             d="M387.88,329.28a14.43,14.43,0,0,1-1.31-3.76c-.58-3.14.2-6.73,2.74-8.67,1-.76,2.33-1.33,2.76-2.53a4.14,4.14,0,0,0,0-2.07c-.47-2.68-1.37-5.44-.63-8.05a9,9,0,0,1,5-5.36,27,27,0,0,1,7.27-1.9,11.77,11.77,0,0,0,3.85-1.1c1.44-.81,1.89-2.23,2.78-3.48a24.3,24.3,0,0,1,3.54-3.77c2.62-2.34,5.9-4.27,9.53-4.11,7.58.33,7.36,6.85,5.18,11.79s-2.76,6.55,2,11.7,4.74,11.5-.91,15-9.32,4-7.08,10.86c2,6.11,3.23,11.32-2.41,17.85-3.65,4.22-8.64,7.23-14.88,7A25.12,25.12,0,0,1,398,357c-1.72-.85-.56-2.18-1.14-3.88l-3.74-10.92a81.09,81.09,0,0,0-3-8.62C389.43,332.08,388.59,330.71,387.88,329.28Z"
             id="path468" />
        </g>
        <path
           d="M398.18,357a.53.53,0,0,0,.37-.53c-.32-37.42,20.31-59.76,20.52-60a.58.58,0,0,0,0-.8.56.56,0,0,0-.79,0c-.21.22-21.14,22.87-20.82,60.76a.55.55,0,0,0,.56.56Z"
           style="fill:#fff"
           id="path472" />
        <path
           d="M404.18,322.17l.12-.05c6.71-4.23,18.68-7.38,18.8-7.41a.57.57,0,0,0,.4-.69.55.55,0,0,0-.68-.4c-.5.13-12.26,3.22-19.11,7.54a.55.55,0,0,0-.18.77A.55.55,0,0,0,404.18,322.17Z"
           style="fill:#fff"
           id="path474" />
        <path
           d="M406.26,317h0a.57.57,0,0,0,.31-.74,43.53,43.53,0,0,0-6.19-10.41.55.55,0,0,0-.79-.06.57.57,0,0,0-.06.79,42.89,42.89,0,0,1,6,10.11A.55.55,0,0,0,406.26,317Z"
           style="fill:#fff"
           id="path476" />
        <path
           d="M392.92,361a31.45,31.45,0,0,1-16.43.6c-9.42-2-15.19-10.84-15.19-10.84s10.2-4.08,16.14-4.48a52.62,52.62,0,0,0-17.85.38s-5.46-2-4.43-11.24c0,0,5.14-3.79,17-2.3,0,0-5.92-4.23-16.31-5.48-.82,0,.29-12,1.28-17.35s3-4.52,7.2-4.06,16.81,3.32,18.4,6.4.05,10.94.05,10.94a18,18,0,0,0,3.46-10.28s4.73,1.73,7.26,4a16.82,16.82,0,0,1,4.52,5.66c-.59,4.21-2.57,10.64-5.35,14.23,0,0,6.26-4.05,7.69-11.49a26,26,0,0,1,5,14.65C405.22,349.75,401,356.74,392.92,361Z"
           style="fill:#00E0BE"
           id="path478" />
        <path
           d="M392.92,361a31.45,31.45,0,0,1-16.43.6c-9.42-2-15.19-10.84-15.19-10.84s10.2-4.08,16.14-4.48a52.62,52.62,0,0,0-17.85.38s-5.46-2-4.43-11.24c0,0,5.14-3.79,17-2.3,0,0-5.92-4.23-16.31-5.48-.82,0,.29-12,1.28-17.35s3-4.52,7.2-4.06,16.81,3.32,18.4,6.4.05,10.94.05,10.94a18,18,0,0,0,3.46-10.28s4.73,1.73,7.26,4a16.82,16.82,0,0,1,4.52,5.66c-.59,4.21-2.57,10.64-5.35,14.23,0,0,6.26-4.05,7.69-11.49a26,26,0,0,1,5,14.65C405.22,349.75,401,356.74,392.92,361Z"
           style="opacity:0.1"
           id="path480" />
        <path
           d="M394.17,360.19a.52.52,0,0,1-.34-.46c-1.43-17.86-21.41-45.75-30.24-51.35a.56.56,0,0,1-.17-.75.55.55,0,0,1,.74-.17c9,5.69,29.29,34,30.73,52.18a.53.53,0,0,1-.49.58A.45.45,0,0,1,394.17,360.19Z"
           style="fill:#fff"
           id="path482" />
      </g>
    </g>
  </g>
  <g
     id="freepik--Character--inject-7">
    <g
       id="freepik--character--inject-7">
      <path
         d="m 213.49,349 c 0,-0.2 -3.21,-11.8 -3.21,-11.8 0,0 1.05,1.07 7.75,-0.7 a 38,38 0 0 0 7.29,-3.06 l 1.91,8.48 c 1.79,3.26 7.71,1.76 14.19,1 1.09,-0.13 2.21,-0.31 3.33,-0.5 h 0.07 c 3.5,-0.19 7,1.91 3.38,4.9 -3.62,2.99 -9.65,4.11 -15.18,5.11 -6.66,1.25 -18.34,3.2 -19.53,-3.43 z"
         style="fill:#ffa8a7"
         id="path487" />
      <path
         d="m 260,348 a 6.79,6.79 0 0 1 0.48,3.56 c -0.12,1.29 -3.32,5.67 -9,8.36 -5.68,2.69 -12.62,2.86 -15.88,3.8 -3.26,0.94 -6.26,2.81 -10.11,3.75 -3.85,0.94 -7.66,1.44 -11.52,-1.11 -0.71,-1.09 -1.49,-3.62 -1.27,-3.87 C 213.4,361.83 260,348 260,348 Z"
         style="fill:#263238"
         id="path489" />
      <path
         d="m 228.25,343.08 c 2.48,1.71 7.62,0.52 13.17,-0.11 5.24,-0.6 11.13,-2.44 14.69,-1.2 3.56,1.24 6.53,5.42 1.72,10.79 -1.39,1.55 -4.33,4.28 -6.69,5.13 -6,2.14 -11.34,2.31 -15.18,3.26 -5,1.23 -7.74,3.45 -12.36,4 -6,0.7 -9.78,-0.84 -10.82,-2.44 -1.04,-1.6 -2,-14.49 0.57,-14.22 0,0 1.08,4.17 10.87,0.12 4.27,-1.79 4.2,-4.41 4.03,-5.33 z"
         style="fill:#00e0be"
         id="path491" />
      <path
         d="m 228.25,343.08 c 2.48,1.71 7.62,0.52 13.17,-0.11 5.24,-0.6 11.13,-2.44 14.69,-1.2 3.56,1.24 6.53,5.42 1.72,10.79 -1.39,1.55 -4.33,4.28 -6.69,5.13 -6,2.14 -11.34,2.31 -15.18,3.26 -5,1.23 -7.74,3.45 -12.36,4 -6,0.7 -9.78,-0.84 -10.82,-2.44 -1.04,-1.6 -2,-14.49 0.57,-14.22 0,0 1.08,4.17 10.87,0.12 4.27,-1.79 4.2,-4.41 4.03,-5.33 z"
         style="opacity:0.4"
         id="path493" />
      <path
         d="m 244.85,350 c 0,0 -0.56,-5.44 -4.58,-6.88 a 2.11,2.11 0 0 0 -2.22,0.29 c 0,0 3.73,0.54 5,6.93 0,0 0.19,0.42 1,0.27 0.24,-0.06 0.84,-0.17 0.8,-0.61 z"
         style="fill:#fafafa"
         id="path495" />
      <path
         d="m 234.62,343.82 c 0,0 0,-0.18 0.94,-0.35 a 1.68,1.68 0 0 1 1.11,0.12 c 0,0 3,1.3 3.56,7 0,0 0,0.68 -0.93,0.87 a 0.82,0.82 0 0 1 -1.07,-0.56 c 0,0 -0.62,-5.99 -3.61,-7.08 z"
         style="fill:#fafafa"
         id="path497" />
      <path
         d="m 231.4,343.94 c 0,0 0.17,-0.34 0.87,-0.34 0.89,0 1.1,0.35 1.1,0.35 0,0 2.14,2.19 2.16,6.95 0,0 0.09,0.8 -1,0.88 -1.09,0.08 -1,-0.82 -1,-0.82 0,0 -0.38,-6.06 -2.13,-7.02 z"
         style="fill:#fafafa"
         id="path499" />
      <path
         d="m 209.35,270.2 c 4.9,14.73 17.9,65.45 17.9,65.45 0,0 -8.46,7.6 -17.64,4.14 l -21.87,-63.16 z"
         style="fill:#37474f"
         id="path501" />
      <path
         d="m 247.14,365.4 c -1,-1.49 -4.76,-11.8 -4.76,-11.8 0,0 3.92,2.24 10.67,0.64 3.43,-0.82 6.64,-4.54 6.64,-4.54 l 2.88,9.91 c 1.7,3.31 7.21,2.22 13.71,1.64 1.09,-0.1 2.21,-0.26 3.34,-0.42 h 0.07 c 3.5,-0.1 7,2.08 3.25,5 -3.75,2.92 -9.74,3.88 -15.3,4.74 -6.64,1.01 -16.75,0.43 -20.5,-5.17 z"
         style="fill:#ffa8a7"
         id="path503" />
      <path
         d="m 297.56,365.09 a 7.31,7.31 0 0 1 0.43,3.84 c -0.17,1.38 -3.72,6 -9.84,8.73 -6.12,2.73 -13.63,2.74 -17.16,3.66 -3.53,0.92 -6.79,2.86 -10.95,3.77 -4.16,0.91 -8.26,1.33 -12.33,-1.49 -0.74,-1.2 -1.52,-3.94 -1.26,-4.2 0.67,-0.69 51.11,-14.31 51.11,-14.31 z"
         style="fill:#263238"
         id="path505" />
      <path
         d="m 263.63,358.87 a 10.44,10.44 0 0 0 1.23,0.76 3.67,3.67 0 0 0 1.36,0.28 18.9,18.9 0 0 0 3.28,0.08 c 2.74,-0.13 5.47,-0.55 8.21,-0.79 5.63,-0.5 12,-2.32 15.79,-0.9 3.79,1.42 7.25,6 1.94,11.61 a 26,26 0 0 1 -7.1,5.39 c -6.29,2.63 -12.82,2.14 -17,3.06 -5.4,1.19 -8.4,3.5 -13.38,3.95 -6.45,0.59 -10.47,-1.16 -11.54,-2.91 -0.6,-1 0.06,-6 -0.74,-9.95 -0.7,-3.38 -0.52,-5.68 0.7,-5.53 a 6,6 0 0 0 0.94,1.2 4.51,4.51 0 0 0 1.43,1.13 11.29,11.29 0 0 0 2.42,0.81 14.29,14.29 0 0 0 4.49,0.62 2.18,2.18 0 0 0 1.22,-0.39 2.57,2.57 0 0 0 0.71,-1.52 c 0.1,-0.5 0.21,-1 0.31,-1.5 a 2.1,2.1 0 0 1 0.28,-0.77 2,2 0 0 1 0.76,-0.61 6.56,6.56 0 0 0 2.46,-1.87 5.78,5.78 0 0 0 0.72,-2.32 0.57,0.57 0 0 1 0.16,-0.38 c 0.18,-0.14 0.45,0 0.65,0.11 z"
         style="fill:#00e0be"
         id="path507" />
      <path
         d="m 263.63,358.87 a 10.44,10.44 0 0 0 1.23,0.76 3.67,3.67 0 0 0 1.36,0.28 18.9,18.9 0 0 0 3.28,0.08 c 2.74,-0.13 5.47,-0.55 8.21,-0.79 5.63,-0.5 12,-2.32 15.79,-0.9 3.79,1.42 7.25,6 1.94,11.61 a 26,26 0 0 1 -7.1,5.39 c -6.29,2.63 -12.82,2.14 -17,3.06 -5.4,1.19 -8.4,3.5 -13.38,3.95 -6.45,0.59 -10.47,-1.16 -11.54,-2.91 -0.6,-1 0.06,-6 -0.74,-9.95 -0.7,-3.38 -0.52,-5.68 0.7,-5.53 a 6,6 0 0 0 0.94,1.2 4.51,4.51 0 0 0 1.43,1.13 11.29,11.29 0 0 0 2.42,0.81 14.29,14.29 0 0 0 4.49,0.62 2.18,2.18 0 0 0 1.22,-0.39 2.57,2.57 0 0 0 0.71,-1.52 c 0.1,-0.5 0.21,-1 0.31,-1.5 a 2.1,2.1 0 0 1 0.28,-0.77 2,2 0 0 1 0.76,-0.61 6.56,6.56 0 0 0 2.46,-1.87 5.78,5.78 0 0 0 0.72,-2.32 0.57,0.57 0 0 1 0.16,-0.38 c 0.18,-0.14 0.45,0 0.65,0.11 z"
         style="opacity:0.4"
         id="path509" />
      <path
         d="m 281.2,366.83 c 0,0 -0.46,-5.86 -4.74,-7.51 a 2.28,2.28 0 0 0 -2.39,0.25 c 0,0 4,0.68 5.14,7.57 0,0 0.2,0.46 1.08,0.32 0.29,-0.04 0.94,-0.14 0.91,-0.63 z"
         style="fill:#fafafa"
         id="path511" />
      <path
         d="m 270.38,359.94 c 0,0 0,-0.2 1,-0.36 a 1.78,1.78 0 0 1 1.18,0.16 c 0,0 3.19,1.47 3.64,7.6 0,0 0,0.73 -1,0.91 a 0.89,0.89 0 0 1 -1.14,-0.63 c 0,0 -0.49,-6.44 -3.68,-7.68 z"
         style="fill:#fafafa"
         id="path513" />
      <path
         d="m 266.92,360 c 0,0 0.19,-0.36 0.95,-0.34 0.95,0 1.16,0.4 1.16,0.4 0,0 2.24,2.41 2.14,7.51 0,0 0.08,0.87 -1.13,0.93 -1.21,0.06 -1,-0.91 -1,-0.91 0,0 -0.26,-6.54 -2.12,-7.59 z"
         style="fill:#fafafa"
         id="path515" />
      <path
         d="m 243.84,287.59 c 3.86,11.87 13.72,45.66 18.22,63 0,0 -8.09,7.28 -18.5,6.64 l -25.09,-65.06 10,-6.18 z"
         style="fill:#455a64"
         id="path517" />
      <path
         d="m 161.23,450 a 1.63,1.63 0 0 0 1.63,-1.63 V 343.81 a 1.63,1.63 0 0 0 -3.26,0 V 448.4 a 1.63,1.63 0 0 0 1.63,1.6 z"
         style="fill:#455a64"
         id="path519" />
      <path
         d="m 96.52,412 a 1.62,1.62 0 0 0 1.51,-1 l 32.07,-81.18 a 1.62,1.62 0 1 0 -3,-1.19 L 95,409.73 a 1.63,1.63 0 0 0 0.91,2.11 1.61,1.61 0 0 0 0.61,0.16 z"
         style="fill:#455a64"
         id="path521" />
      <path
         d="m 100.37,402.21 a 1.61,1.61 0 0 0 1.18,-0.51 l 59.68,-63.15 59.57,62.88 a 1.63,1.63 0 0 0 2.36,-2.24 l -60.75,-64.13 a 1.64,1.64 0 0 0 -1.18,-0.51 v 0 a 1.63,1.63 0 0 0 -1.18,0.51 l -60.86,64.4 a 1.63,1.63 0 0 0 1.18,2.75 z"
         style="fill:#455a64"
         id="path523" />
      <path
         d="m 225.94,412 a 1.61,1.61 0 0 0 0.6,-0.12 1.63,1.63 0 0 0 0.91,-2.11 L 195.38,328.6 a 1.63,1.63 0 1 0 -3,1.19 l 32.08,81.18 a 1.62,1.62 0 0 0 1.48,1.03 z"
         style="fill:#455a64"
         id="path525" />
      <path
         d="m 226.72,307.94 c 1.17,-6.56 -4.17,-11.68 -14.23,-18.47 A 238.45,238.45 0 0 0 183.36,273.1 c -8.42,-3.86 -17,-3.5 -27.79,2 -15,7.69 -60,35 -60,35 0,0 67.32,38 80.27,36.3 12.95,-1.7 45.32,-22.76 47.89,-30.17 2.57,-7.41 2.99,-8.29 2.99,-8.29 z"
         style="fill:#00e0be"
         id="path527" />
      <g
         style="opacity:0.4"
         id="g531">
        <path
           d="m 226.72,307.94 c 1.17,-6.56 -4.17,-11.68 -14.23,-18.47 A 238.45,238.45 0 0 0 183.36,273.1 c -8.42,-3.86 -17,-3.5 -27.79,2 -15,7.69 -60,35 -60,35 0,0 67.32,38 80.27,36.3 12.95,-1.7 45.32,-22.76 47.89,-30.17 2.57,-7.41 2.99,-8.29 2.99,-8.29 z"
           id="path529" />
      </g>
      <path
         d="m 169.35,338.43 c 9.66,8.75 19.76,1.22 35.74,-9.15 18.09,-11.73 21.63,-21.34 21.63,-21.34 0,0 0,7.2 -1.35,10.57 -1.35,3.37 -4.27,7.2 -17.31,16.19 -13.04,8.99 -22.49,13.49 -31.26,15.16 l -6.92,-0.95"
         style="fill:#00e0be"
         id="path533" />
      <path
         d="m 205.09,329.28 c 18.09,-11.73 21.63,-21.34 21.63,-21.34 0,0 0,7.2 -1.35,10.57 -1.35,3.37 -4.27,7.2 -17.31,16.19 -13.04,8.99 -22.49,13.49 -31.26,15.16 l -6.92,-0.95 -0.53,-10.48 c 9.65,8.75 19.76,1.22 35.74,-9.15 z"
         style="opacity:0.5"
         id="path535" />
      <path
         d="m 99,399.22 -5,11.42 a 1.59,1.59 0 0 0 -0.06,0.3 1.34,1.34 0 0 0 0,0.21 1.41,1.41 0 0 0 0.63,0.76 3,3 0 0 0 2.68,0.13 1.18,1.18 0 0 0 0.55,-0.53 v 0 -0.15 l 4.6,-10.71 z"
         style="fill:#00e0be"
         id="path537" />
      <path
         d="m 223.73,399.7 4.27,11.19 a 1.35,1.35 0 0 1 0,0.29 v 0.2 a 1.31,1.31 0 0 1 -0.64,0.7 2.8,2.8 0 0 1 -2.58,0 1.15,1.15 0 0 1 -0.51,-0.52 v 0 -0.16 l -3.93,-10.49 z"
         style="fill:#00e0be"
         id="path539" />
      <path
         d="m 159.35,440.3 v 9.26 a 1,1 0 0 0 0.55,0.76 2.9,2.9 0 0 0 2.66,0 0.93,0.93 0 0 0 0.54,-0.76 v -9.26 a 4,4 0 0 0 -3.75,0 z"
         style="fill:#00e0be"
         id="path541" />
      <path
         d="m 122.54,268.72 c 3.83,4.47 38.72,-5.57 48,-6.83 14.9,-2 27,-3.51 32.1,-1.92 5.1,1.59 7.21,4.17 8.76,10.23 1.83,7.14 2.77,10.79 2.77,10.79 0,0 -24.76,9.5 -44.3,11.79 -19.54,2.29 -47.33,-24.06 -47.33,-24.06 z"
         style="fill:#37474f"
         id="path543" />
      <path
         d="m 116,275.27 c -3.87,14.74 -7.34,31.88 1.61,41.26 6,6.32 36.31,22.74 55.85,16.27 19.24,-6.37 59.1,-36 63.1,-38.93 4,-2.93 7.63,-5 7.25,-6.28 -5.37,-17.84 -13.23,-19.24 -27.79,-16 -17.82,3.92 -56.92,19.87 -56.92,19.87 z"
         style="fill:#455a64"
         id="path545" />
      <polygon
         points="204.52,180.52 191.08,195.71 169.38,185.41 184.55,164.42 "
         style="fill:#ffa8a7"
         id="polygon547" />
      <path
         d="m 221.19,151.66 c 0,0 5.5,7.94 4.91,8.75 -0.59,0.81 -4.48,1.61 -4.48,1.61 z"
         style="fill:#f28f8f"
         id="path549" />
      <path
         d="m 205.92,129.68 c 10.81,2 14,6.68 15.43,23.75 1.46,17.83 -0.23,23.49 -2.52,25.94 -1.55,1.66 -10.34,2.16 -14.81,1 -5.59,-1.41 -18.25,-5.57 -24.33,-14.42 -7.16,-10.41 -9.31,-24.69 -2,-30.73 10.2,-8.47 23.83,-6.36 28.23,-5.54 z"
         style="fill:#ffa8a7"
         id="path553" />
      <path
         d="m 204.52,180.52 c 4.65,1 11.73,0.41 13.83,-0.79 a 16,16 0 0 1 -7.83,-0.29 25.61,25.61 0 0 1 -7.17,-3.16 z"
         style="fill:#f28f8f"
         id="path555" />
      <path
         d="m 223.35,136.67 v 0 c -3,2.08 -6.7,2.94 -10.32,3.51 0.28,2.89 -0.63,5.75 -1.53,8.52 -0.62,1.91 -2.87,7.92 -5.32,4.62 -1.77,-2.38 -3.37,-4.55 -6.76,-4 -5.58,1 -6.17,8.11 -2.54,12.37 3.63,4.26 6.88,2.52 6.88,2.52 0,0 0.51,7.69 -3.55,13.13 0,0 -6.05,3.72 -14.55,0.92 -5.36,-1.77 -13.1,-8.53 -15.95,-13.81 -7.85,-14.52 -7.89,-28.44 1.63,-32.72 0.88,-7 6.27,-10.2 12.46,-11.77 8.59,-2.18 17.51,3.21 25.81,-0.35 1.75,-0.75 3.36,-1.81 5.15,-2.46 a 3.56,3.56 0 0 1 3.09,0 3.76,3.76 0 0 1 1.32,2.36 6.62,6.62 0 0 1 -0.33,5 15,15 0 0 1 3.91,-1.44 4.9,4.9 0 0 1 3.94,0.89 5.07,5.07 0 0 1 1.58,3.44 c 0.31,3.67 -1.92,7.18 -4.92,9.27 z"
         style="fill:#263238"
         id="path557" />
      <path
         d="m 171.19,134.12 -6.52,-3.65 a 3.74,3.74 0 1 1 6.52,3.65 z"
         style="fill:#263238"
         id="path559" />
      <path
         d="m 249.86,189.4 c -0.56,-0.94 -1.81,-1.13 -2.85,-1.49 -1.92,-0.67 -3.42,-2.2 -5.27,-3 a 10.4,10.4 0 0 0 -6.66,-0.45 16.88,16.88 0 0 0 -2.22,0.71 27.94,27.94 0 0 0 -4,2 c -5.3,3.13 -9.28,10.22 -14.49,13.47 -1.94,1.21 -3.75,2.31 -5.54,3.41 l 12.47,11.05 a 74.46,74.46 0 0 1 6.14,-4.67 c 3.06,-1.82 6.15,-1.86 9.59,-2.36 a 47.58,47.58 0 0 0 7,-1.75 3.09,3.09 0 0 0 2.07,-1.35 2.08,2.08 0 0 0 -1.34,-2.56 18,18 0 0 0 -3.63,-0.5 c -0.9,-0.14 -3.3,0.39 -3.83,-0.51 -0.28,-0.48 0.07,-1.06 0.41,-1.49 2.16,-2.69 4.89,-5.57 8.34,-6.38 a 7.24,7.24 0 0 0 3,-1.21 2.39,2.39 0 0 0 0.81,-2.92 z"
         style="fill:#ffa8a7"
         id="path563" />
      <path
         d="m 175.47,177 c -13.21,-7.21 -25.24,-2.58 -29.57,6.69 -3.93,8.39 -12.17,40.85 -12.17,40.85 C 137.69,232 175.47,177 175.47,177 Z"
         style="fill:#00e0be"
         id="path565" />
      <path
         d="m 173.49,179.6 2,-2.61 c -14.92,-7.08 -28.27,2.22 -40,20.52 -12.68,19.72 -19.33,48 -19.39,77.91 0,0 2.53,13.43 19.49,20.14 18,7.13 43.11,4.11 50.94,-14.55 0,0 0.16,-18.63 5.82,-27.81 3.67,-5.94 12.22,-19.13 18.58,-28.6 5.54,-8.24 9.85,-27 -1.72,-33.85 a 98.25,98.25 0 0 0 -9.41,-4.8 c -10.58,3.48 -27.67,-2.17 -26.31,-6.35 z"
         style="fill:#00e0be"
         id="path567" />
      <path
         d="m 173.53,179.67 1.94,-2.68 c -14.92,-7.08 -28.27,2.22 -40,20.52 -12.68,19.72 -19.33,48 -19.39,77.91 0,0 2.53,13.43 19.49,20.14 18,7.13 43.11,4.11 50.94,-14.55 0,0 0.16,-18.63 5.82,-27.81 3.67,-5.94 12.22,-19.13 18.58,-28.6 5.54,-8.24 9.85,-27 -1.72,-33.85 a 98.25,98.25 0 0 0 -9.41,-4.8 c -10.56,3.48 -27.61,-2.1 -26.25,-6.28 z"
         style="opacity:0.75;fill:#ffffff"
         id="path569" />
      <path
         d="m 215.7,212.65 a 30.2,30.2 0 0 0 0.46,-10.86 v 0 A 58,58 0 0 1 204.9,219 c -6.07,6.39 -13.56,11.37 -19.19,18.15 -6,7.18 -10.25,15.87 -15.25,23.71 -2,3.15 -4.74,9.22 -8.46,9.47 -4.54,0.29 -8.88,-5.24 -11.35,-9.06 -4,-6.08 -7.34,-13.69 -12.25,-19 -4.29,-4.67 -10.93,-10.65 -16.77,-7.94 v 0 c -0.44,1.55 -0.85,3.12 -1.24,4.7 -0.39,1.58 -0.75,3.22 -1.09,4.83 0,0.06 0,0.13 0,0.19 -0.33,1.62 -0.64,3.25 -0.93,4.88 a 2,2 0 0 1 0,0.26 q -0.42,2.43 -0.75,4.86 a 157.64,157.64 0 0 0 -1.49,21.41 c 0,0 2.53,13.43 19.49,20.14 18,7.13 43.11,4.11 50.94,-14.55 0,0 0.16,-18.63 5.82,-27.81 0.57,-0.92 1.27,-2 2,-3.27 v 0 l 0.13,-0.21 c 0.65,-1 1.35,-2.13 2.11,-3.31 0,-0.07 0.09,-0.14 0.14,-0.21 a 0.41,0.41 0 0 1 0,-0.09 c 1.62,-2.53 3.44,-5.33 5.32,-8.22 l 0.85,-1.31 c 1.82,-2.78 3.67,-5.59 5.43,-8.24 v 0 c 0.59,-0.89 1.17,-1.76 1.75,-2.61 0.24,-0.37 0.49,-0.73 0.72,-1.09 v 0 c 0.2,-0.29 0.4,-0.61 0.59,-0.93 l 0.18,-0.3 0.42,-0.74 0.18,-0.34 0.45,-0.88 a 2.4,2.4 0 0 1 0.11,-0.23 c 0.19,-0.39 0.37,-0.79 0.55,-1.2 v -0.05 -0.07 c 0.16,-0.38 0.32,-0.76 0.47,-1.14 0,-0.1 0.07,-0.19 0.1,-0.28 0.14,-0.37 0.28,-0.74 0.41,-1.11 v -0.09 -0.13 c 0.24,-0.69 0.46,-1.41 0.66,-2.13 v 0 c 0.2,-0.73 0.38,-1.47 0.54,-2.21 v -0.09 z"
         style="opacity:0.1;fill:#00e0be"
         id="path571" />
      <path
         d="m 284.89,230.8 a 27.57,27.57 0 0 1 -3.1,3.2 c -4.56,4.13 -9.89,6.12 -16.09,10.14 -5,3.25 -12.73,8 -19.24,12.05 a 97.27,97.27 0 0 1 -21,9.68 c -6,1.78 -9.43,1.85 -13,-7.83 -1.75,-4.75 -3.14,-9.63 -4.66,-14.46 q -3.37,-10.79 -6.64,-21.61 c 0,0 -8,-19.83 10,-29.79 7.83,4.48 10.81,6.29 13.27,15.67 2.94,11.23 7.7,33.39 7.7,33.39 a 156.74,156.74 0 0 0 18.59,-7.92 c 2.28,-1.13 5.09,-1.92 6.72,-3.95 a 30.18,30.18 0 0 0 2.86,-4.46 c 0.77,-1.38 1.32,-2.88 2.17,-4.2 a 37.21,37.21 0 0 1 5.91,-6.51 2.43,2.43 0 0 1 1.43,-0.85 1.66,1.66 0 0 1 1.45,0.88 c 0.66,1.16 0.05,2.29 -0.29,3.47 -0.39,1.35 -0.78,2.7 -1.16,4 a 35.25,35.25 0 0 0 11.47,-10.7 5.87,5.87 0 0 1 0.9,-1.14 1.74,1.74 0 0 1 1.34,-0.49 c 1.2,0.15 2.39,2.09 2.45,3.2 a 18.23,18.23 0 0 0 0.09,3.39 c 0.27,1 1,1.9 1.31,2.92 a 17,17 0 0 1 0.68,3.24 11.1,11.1 0 0 1 -1.82,6.79 16,16 0 0 1 -1.34,1.89 z"
         style="fill:#ffa8a7"
         id="path573" />
      <path
         d="m 210.08,191.35 c 6.85,2.77 11.79,5.9 14.91,16.36 3.12,10.46 6.52,27.29 6.52,27.29 0,0 0.06,3.51 -8.26,8.42 a 20.48,20.48 0 0 1 -16.11,2.17 l -6.28,-20.2 c 0,0 -11.14,-27.06 9.22,-34.04 z"
         style="fill:#00e0be"
         id="path575" />
      <path
         d="m 169.88,348.91 c -5.5,-0.28 -9.81,-4.32 -22.89,-9.77 C 122.83,329.07 104.71,321 97.8,308.36 90.89,295.72 86.01,259.18 87.74,243.36 a 20.35,20.35 0 0 1 1.18,-5.24 l -1.7,-0.25 4.4,-3.75 v 0 c 4.52,-3.68 11.86,-0.4 17.4,2.62 15.82,8.6 28.19,17 38,47.17 7.35,22.71 12.2,43.43 22.36,54.51"
         style="fill:#00e0be"
         id="path577" />
      <path
         d="m 88.92,238.12 -1.7,-0.25 4.4,-3.75 v 0 c 4.52,-3.68 11.86,-0.4 17.4,2.62 15.82,8.6 28.19,17 38,47.17 7.35,22.71 12.2,43.43 22.36,54.51 l 0.53,10.48 c -5.5,-0.28 -9.81,-4.32 -22.89,-9.77 C 122.83,329.07 104.71,321 97.8,308.36 90.89,295.72 86.01,259.18 87.74,243.36 a 20.78,20.78 0 0 1 1.18,-5.24 z"
         style="opacity:0.3"
         id="path579" />
      <path
         d="m 104.44,240.64 c 15.81,8.6 28.18,17 38,47.17 9.82,30.17 15.13,56.88 34.4,62.05 0,0 -8.71,3.47 -35.41,-7.83 -8.5,-3.59 -18.81,-10.14 -25.58,-13.94 -13.27,-7.45 -21.32,-13.55 -22.59,-15.84 -7,-12.59 -11.79,-49.18 -10.07,-65 1.72,-15.82 13.32,-10.93 21.25,-6.61 z"
         style="fill:#00e0be"
         id="path581" />
    </g>
  </g>
  <g
     id="g603"
     transform="translate(-3.8634698,-4.5399708)">
    <g
       id="freepik--speech-bubble--inject-7">
      <path
         d="M 193.34,106.69 189,98.48 192.51,88.33 v -6.21 l -10.75,6.21 v 6.21 l 4.62,8 a 0.62,0.62 0 0 0 0.32,0.28 v 0 z"
         style="fill:#00e0be"
         id="path585" />
      <path
         d="M 193.34,106.69 189,98.48 192.51,88.33 v -6.21 l -10.75,6.21 v 6.21 l 4.62,8 a 0.62,0.62 0 0 0 0.32,0.28 v 0 z"
         style="opacity:0.2"
         id="path587" />
      <path
         d="m 219,32.75 a 7.14,7.14 0 0 0 -3.23,-5.59 l -2.62,-1.51 a 7.12,7.12 0 0 0 -6.45,0 l -40.25,23.29 a 7.13,7.13 0 0 0 -3.22,5.59 v 44.31 a 7.13,7.13 0 0 0 3.22,5.58 l 2.63,1.52 a 7.12,7.12 0 0 0 6.45,0 l 12.95,-7.48 4.62,8 a 0.68,0.68 0 0 0 1.24,-0.12 l 4.88,-14.08 16.58,-9.6 a 7.14,7.14 0 0 0 3.2,-5.6 z"
         style="fill:#00e0be"
         id="path589" />
      <path
         d="m 163.23,98.84 a 7.13,7.13 0 0 0 3.22,5.58 l 2.63,1.52 a 7.21,7.21 0 0 0 5.9,0.26 c -1.52,0.57 -2.68,-0.28 -2.68,-2.12 V 59.77 a 6.64,6.64 0 0 1 0.95,-3.18 l -9.08,-5.24 a 6.62,6.62 0 0 0 -0.94,3.18 z"
         style="opacity:0.2"
         id="path591" />
      <path
         d="m 218.92,31.83 c -0.37,-1.37 -1.62,-1.8 -3.11,-0.95 l -40.28,23.3 a 6.37,6.37 0 0 0 -2.27,2.41 l -9.08,-5.24 a 6.58,6.58 0 0 1 2.27,-2.4 l 40.27,-23.3 a 7.12,7.12 0 0 1 6.45,0 l 2.64,1.52 a 7.08,7.08 0 0 1 3.11,4.66 z"
         style="opacity:0.5;fill:#ffffff"
         id="path593" />
      <g
         id="freepik----inject-7">
        <path
           d="m 178.23,77.16 a 2.36,2.36 0 0 1 0.16,-0.92 7,7 0 0 1 0.47,-0.86 l 8.76,-14.15 a 0.66,0.66 0 0 1 0.14,-0.17 l 0.1,-0.07 a 0.24,0.24 0 0 1 0.32,0 0.58,0.58 0 0 1 0.14,0.43 v 5.46 a 2.34,2.34 0 0 1 -0.26,1.14 7.16,7.16 0 0 1 -0.44,0.75 l -4.52,6.88 4.52,2.08 a 1.92,1.92 0 0 1 0.44,0.21 c 0.17,0.11 0.26,0.39 0.26,0.83 v 3.88 a 1.3,1.3 0 0 1 -0.14,0.58 0.83,0.83 0 0 1 -0.32,0.4 h -0.1 a 0.23,0.23 0 0 1 -0.14,0 l -8.76,-4 a 1.18,1.18 0 0 1 -0.47,-0.32 1.17,1.17 0 0 1 -0.16,-0.73 z"
           style="fill:#ffffff"
           id="path595" />
        <path
           d="m 197.31,55.3 a 5.6,5.6 0 0 1 0.33,-0.88 1.59,1.59 0 0 1 0.64,-0.69 L 201.21,52 a 0.26,0.26 0 0 1 0.34,0 0.61,0.61 0 0 1 0.14,0.44 1.47,1.47 0 0 1 0,0.33 l -7.4,31.54 a 4.25,4.25 0 0 1 -0.31,0.85 1.59,1.59 0 0 1 -0.65,0.71 l -2.87,1.66 a 0.26,0.26 0 0 1 -0.34,0 0.56,0.56 0 0 1 -0.14,-0.44 1.33,1.33 0 0 1 0,-0.32 z"
           style="fill:#ffffff"
           id="path597" />
        <path
           d="m 213.4,60.4 a 2.3,2.3 0 0 1 -0.16,0.92 7,7 0 0 1 -0.47,0.86 L 204,76.34 a 1.31,1.31 0 0 1 -0.14,0.16 l -0.1,0.08 a 0.25,0.25 0 0 1 -0.33,0 0.55,0.55 0 0 1 -0.13,-0.43 v -5.48 a 2.24,2.24 0 0 1 0.25,-1.12 c 0.17,-0.3 0.32,-0.54 0.45,-0.73 L 207.83,62.9 204,61.44 a 1.6,1.6 0 0 1 -0.45,-0.23 c -0.17,-0.12 -0.25,-0.4 -0.25,-0.85 V 54.9 a 1.33,1.33 0 0 1 0.13,-0.58 0.93,0.93 0 0 1 0.33,-0.39 h 0.1 0.14 l 8.76,4 a 0.87,0.87 0 0 1 0.63,1 z"
           style="fill:#ffffff"
           id="path599" />
      </g>
    </g>
  </g>
</svg>
