<?xml version="1.0" encoding="UTF-8"?>
<!-- Created with Inkscape (http://www.inkscape.org/) -->
<svg width="73.776mm" height="69.862mm" version="1.1" viewBox="0 0 73.776 69.862" xmlns="http://www.w3.org/2000/svg" xmlns:cc="http://creativecommons.org/ns#" xmlns:dc="http://purl.org/dc/elements/1.1/" xmlns:rdf="http://www.w3.org/1999/02/22-rdf-syntax-ns#">
  <metadata>
    <rdf:RDF>
      <cc:Work rdf:about="">
        <dc:format>image/svg+xml</dc:format>
        <dc:type rdf:resource="http://purl.org/dc/dcmitype/StillImage"/>
        <dc:title/>
      </cc:Work>
    </rdf:RDF>
  </metadata>
  <g transform="translate(-23.588 -132.05)">
    <g id="svgg" transform="matrix(-.26458 0 0 -.26458 113.39 219.96)" fill="#263238">
      <path d="m68 70.613c-8.677 2.959-10.306 10.849-2 9.688 91.733-12.825 185.07 64.434 220.04 182.14 7.746 26.077 7.651 26.449-3.478 13.526-30.837-35.811-41.891-44.604-50.371-40.066-6.455 3.455-5.519 5.126 14.899 26.6 19.66 20.676 47.877 56.51 51.031 64.806 2.482 6.528 14.285 6.65 18.814 0.194 17.258-24.6 30.128-97.5 17.213-97.5-8.849 0-12.143 4.615-12.143 17.012 0 9.614-4.273 35.198-7.18 42.988-0.615 1.65-3.714-7.044-6.886-19.319-26.816-103.79-95.45-179.92-179.93-199.6-15.409-3.588-50.065-3.861-60-0.473" fill="#263238" fill-rule="evenodd"/>
    </g>
  </g>
</svg>
