<?xml version="1.0" encoding="UTF-8"?>
<!-- Created with Inkscape (http://www.inkscape.org/) -->
<svg width="793.03" height="65.668" version="1.1" viewBox="0 0 209.82 17.375" xmlns="http://www.w3.org/2000/svg" xmlns:cc="http://creativecommons.org/ns#" xmlns:dc="http://purl.org/dc/elements/1.1/" xmlns:rdf="http://www.w3.org/1999/02/22-rdf-syntax-ns#">
  <metadata>
    <rdf:RDF>
      <cc:Work rdf:about="">
        <dc:format>image/svg+xml</dc:format>
        <dc:type rdf:resource="http://purl.org/dc/dcmitype/StillImage"/>
        <dc:title/>
      </cc:Work>
    </rdf:RDF>
  </metadata>
  <defs>
    <clipPath id="B">
      <path d="m0.356 413.39h793.05v99.878h-793.05z" stroke-width="2.513"/>
    </clipPath>
  </defs>
  <g transform="matrix(1 0 0 -.97411 -.0034416 25.726)" fill="#263238">
    <path transform="matrix(.26458 0 0 .26458 -.094 -109.38)" d="m155.11 513.1-15.75-0.713c-46.185-2.057-103.66-9.48-134.05-17.213l-5.645-1.633 0.63029-47.729 793.18 0.0464-0.0498 47.891-15.438-3.4393c-58.673-13.019-102.59-18.895-164.62-22.025-16.647-0.84-72.018-0.828-86.5 0.018-54.853 3.206-91.449 7.169-135 14.618-15.307 2.618-24.597 4.456-54.25 10.731-30.756 6.509-44.86 9.211-59.75 11.447-22.357 3.357-42.243 5.511-65.25 7.066-10.564 0.714-49.039 1.339-57.5 0.934z" clip-path="url(#B)" fill="#263238"/>
  </g>
</svg>
